<svg width="13" height="36" viewBox="0 0 13 36" fill="none" xmlns="http://www.w3.org/2000/svg">
<g clip-path="url(#clip0_334_2118)">
<path d="M2.43689 1.56526C3.5033 1.32069 3.5033 1.32069 4.87439 1.56526C9.28164 5.90613 9.73756 14.2581 10.5619 19.9566C10.6955 20.8291 10.8307 21.7014 10.9681 22.5734C11.0299 22.9689 11.0917 23.3643 11.1554 23.7718C11.3192 24.7229 11.4981 25.6639 11.6949 26.6087C12.997 32.8633 12.997 32.8633 12.5931 35.2174C11.3636 36.4018 10.1682 36.1148 8.487 36.1261C8.05732 36.1249 7.62764 36.1236 7.18494 36.1223C6.75997 36.1286 6.335 36.1349 5.89716 36.1414C5.4858 36.1417 5.07445 36.1419 4.65063 36.1422C4.27499 36.1434 3.89935 36.1445 3.51232 36.1457C2.21283 35.9697 1.45186 35.5812 0.405639 34.8261C-0.817017 31.2931 0.0698948 27.2697 0.911864 23.7397C1.53963 20.7978 1.68987 17.8678 1.73865 14.8711C1.75398 14.1372 1.76932 13.4032 1.78467 12.6693C1.80655 11.5246 1.82777 10.3799 1.84874 9.23515C1.8697 8.12193 1.89295 7.00877 1.91638 5.89559C1.9219 5.55119 1.92741 5.20679 1.93309 4.85195C1.98475 2.43627 1.98475 2.43627 2.43689 1.56526ZM3.24939 2.34787C2.59993 2.97343 2.77617 3.64096 2.75973 4.50778C2.75162 4.88379 2.74352 5.25981 2.73517 5.64721C2.72838 6.05604 2.72159 6.46487 2.7146 6.88608C2.70616 7.30243 2.69771 7.71877 2.68902 8.14774C2.66236 9.48344 2.63846 10.8192 2.61462 12.1549C2.59708 13.058 2.57937 13.9612 2.56146 14.8643C2.51786 17.0834 2.47653 19.3026 2.43689 21.5218C2.82039 21.3927 3.20389 21.2637 3.59901 21.1308C5.63341 20.5061 7.32187 20.8728 9.34314 21.5218C9.14602 15.7877 8.69095 7.41151 4.66016 2.81407C4.08487 2.26583 4.08487 2.26583 3.24939 2.34787ZM2.53845 22.9892C1.15601 25.386 1.09094 27.7714 1.11658 30.4484C1.11343 30.7841 1.11029 31.1198 1.10705 31.4657C1.1081 31.7862 1.10915 32.1068 1.11023 32.437C1.11115 32.727 1.11206 33.0169 1.11301 33.3157C1.15461 34.1396 1.15461 34.1396 2.03064 34.8261C3.17367 35.1936 4.21464 35.2639 5.41394 35.2556C5.73862 35.2544 6.06331 35.2531 6.39783 35.2518C6.90056 35.2469 6.90056 35.2469 7.41345 35.2419C7.75489 35.2401 8.09633 35.2384 8.44812 35.2365C9.28814 35.2319 10.1281 35.2249 10.9681 35.2174C11.4801 30.922 11.944 26.218 8.98767 22.5979C8.22241 21.868 7.696 21.5122 6.70251 21.0816C4.9802 21.1645 3.74803 21.8241 2.53845 22.9892Z" fill="white" fill-opacity="0.6"/>
</g>
<defs>
<clipPath id="clip0_334_2118">
<rect width="13" height="36" fill="white"/>
</clipPath>
</defs>
</svg>
