<svg width="11" height="39" viewBox="0 0 11 39" fill="none" xmlns="http://www.w3.org/2000/svg">
<path d="M2.27612 2.41235C2.93991 2.43748 2.93991 2.43748 3.79336 2.81442C5.99965 6.24926 7.0514 10.1869 7.79983 14.2229C7.87995 14.642 7.96008 15.061 8.04264 15.4927C8.60324 18.4853 9.07403 21.4853 9.47005 24.507C9.67607 26.073 9.90488 27.6219 10.2105 29.1699C10.2672 29.4596 10.3238 29.7493 10.3822 30.0478C10.538 30.8244 10.7014 31.5992 10.8654 32.3738C11.0212 33.9906 10.7903 35.0778 10.2416 36.5876C9.11776 37.1833 7.94403 37.1725 6.70931 37.2661C6.45725 37.2902 6.2052 37.3143 5.9455 37.3391C4.39806 37.4576 3.25966 37.4007 1.89681 36.5876C0.572489 34.482 0.979596 31.8063 1.13819 29.3505C1.30481 28.6155 1.49351 27.8855 1.70716 27.1643C3.29355 21.2749 2.3762 14.414 1.5175 8.44328C1.40652 7.60684 1.3029 6.76923 1.20931 5.93039C1.16775 5.59662 1.12619 5.26285 1.08337 4.91896C1.15374 3.76574 1.56434 3.26235 2.27612 2.41235ZM2.27612 3.61854C1.76201 5.47137 2.07951 7.04708 2.41836 8.8956C3.26668 13.9332 3.3163 19.0189 3.41405 24.1237C3.64288 24.0853 3.87171 24.047 4.10748 24.0075C4.41063 23.9629 4.71378 23.9183 5.02612 23.8724C5.32536 23.8258 5.6246 23.7791 5.93291 23.7311C6.9498 23.7203 7.48289 23.9766 8.34509 24.5258C8.03736 20.4372 7.40198 16.4836 6.51966 12.489C6.43012 12.0705 6.34058 11.6521 6.24832 11.2209C5.62041 8.47425 4.71062 6.08729 3.41405 3.61854C3.03853 3.61854 2.66302 3.61854 2.27612 3.61854ZM3.06141 26.1152C1.74703 28.7796 1.70387 31.6332 1.89681 34.5773C2.02198 34.9753 2.14716 35.3734 2.27612 35.7835C3.39266 36.3752 4.40044 36.2385 5.6425 36.2358C6.11092 36.2368 6.57934 36.2379 7.06195 36.2389C8.08251 36.1965 8.89747 36.1073 9.86233 35.7835C10.1081 32.172 9.73231 28.4972 7.88873 25.3566C7.18012 24.5175 6.51093 24.1435 5.50026 23.8221C4.20291 24.2347 3.77531 24.9253 3.06141 26.1152Z" fill="white" fill-opacity="0.6"/>
</svg>
