<svg width="14" height="45" viewBox="0 0 14 45" fill="none" xmlns="http://www.w3.org/2000/svg">
<path d="M4.11693 2.02698C5.86819 2.64277 6.47008 3.74116 7.41105 5.27022C10.6559 12.6707 11.3183 21.5074 12.1592 29.452C12.3367 30.7016 12.616 31.7963 13.0213 32.9898C13.8432 35.4593 14.2372 37.9519 13.0905 40.3742C12.0948 41.9055 11.1035 43.2837 9.46987 44.1891C7.50639 44.1595 6.00964 43.0184 4.42575 41.9847C4.16354 41.8193 3.90133 41.6539 3.63117 41.4835C1.70216 40.245 1.70216 40.245 1.23457 39.3243C0.948626 36.85 1.34822 34.4766 1.82649 32.0523C2.29204 29.6558 2.60257 27.3048 2.71918 24.8675C2.73579 24.5397 2.7524 24.212 2.76951 23.8743C2.97167 19.3725 2.8831 14.864 2.81106 10.3598C2.79373 9.208 2.78403 8.05637 2.77548 6.90451C2.76781 6.55364 2.76014 6.20277 2.75224 5.84126C2.74153 3.40189 2.74153 3.40189 3.50764 2.53408C3.7087 2.36674 3.90977 2.19939 4.11693 2.02698ZM4.11693 3.24319C3.56045 4.33896 3.65585 5.18942 3.65842 6.41616C3.65845 6.91121 3.65848 7.40626 3.65851 7.91631C3.66061 8.45847 3.66276 9.00064 3.66495 9.54281C3.66572 10.0961 3.66631 10.6494 3.66672 11.2027C3.66829 12.6596 3.67234 14.1165 3.67689 15.5734C3.6811 17.0599 3.68298 18.5463 3.68506 20.0327C3.68947 22.9497 3.6965 25.8667 3.70516 28.7837C4.17093 28.4882 4.17093 28.4882 4.64611 28.1867C6.10805 27.3769 6.98847 27.3671 8.64634 27.5675C9.48411 28.0864 10.31 28.6249 11.1169 29.1891C10.7665 24.8528 10.1102 20.5806 9.29296 16.3075C9.13913 15.5014 8.98989 14.6944 8.84076 13.8874C8.18198 10.5314 7.44578 7.07666 5.76399 4.054C4.92652 3.49174 4.92652 3.49174 4.11693 3.24319ZM4.27777 29.3142C3.21727 30.5842 2.86322 32.0764 2.46987 33.6486C2.37645 33.9831 2.28303 34.3175 2.18678 34.6621C2.14432 34.9966 2.10185 35.331 2.0581 35.6756C1.98379 35.9411 1.90948 36.2066 1.83292 36.4801C1.63081 37.6342 1.62412 38.2215 2.0581 39.3243C2.96481 40.1271 3.77457 40.7574 4.78605 41.402C5.0398 41.5652 5.29355 41.7283 5.55499 41.8965C6.80678 42.6261 7.69976 42.9731 9.16105 42.9713C10.8689 42.3623 11.3869 41.4058 12.2959 39.9165C13.4787 37.3954 12.7191 35.0475 11.8761 32.5385C11.0117 30.2572 10.0096 29.1593 7.82281 27.9729C6.09385 27.9729 5.54621 28.2073 4.27777 29.3142Z" fill="white" fill-opacity="0.6"/>
</svg>
