<svg width="12" height="36" viewBox="0 0 12 36" fill="none" xmlns="http://www.w3.org/2000/svg">
<path d="M5.37961 1.59998C8.72505 4.45344 8.65656 10.2083 9.15547 14.225C9.22577 14.7685 9.29635 15.312 9.36722 15.8554C9.65928 18.1162 9.93513 20.3758 10.1447 22.6453C10.2836 24.0475 10.5576 25.3078 11.0175 26.65C11.6101 28.6578 11.7507 29.9748 11.1727 32C10.2158 33.125 10.2158 33.125 9.10375 34C8.84771 34.2475 8.59168 34.495 8.32789 34.75C7.30222 35.2749 6.55501 35.3824 5.41356 35.1469C3.29114 34.2923 1.69981 33.0373 0.414094 31.2C-0.0672742 28.6705 0.256487 26.2743 0.627153 23.7476C0.868588 21.8773 0.898424 20.022 0.915172 18.139C0.926783 17.4002 0.938644 16.6614 0.950732 15.9226C0.967788 14.7729 0.983076 13.6233 0.99397 12.4735C1.00547 11.3536 1.02444 10.2339 1.04448 9.11404C1.04583 8.77518 1.04717 8.43632 1.04856 8.08719C1.09672 5.79894 1.44032 3.67968 2.48306 1.59998C3.63827 1.04163 4.16357 1.20815 5.37961 1.59998ZM3.31065 2.39998C1.68559 4.75631 2.01122 7.85914 2.02886 10.6125C2.02944 10.9631 2.03003 11.3137 2.03063 11.6749C2.03293 12.7833 2.03812 13.8916 2.0434 15C2.04548 15.7562 2.04737 16.5125 2.04906 17.2687C2.0536 19.1125 2.06073 20.9562 2.06927 22.8C2.53573 22.5068 2.53573 22.5068 3.01162 22.2078C4.4532 21.4301 5.40496 21.4568 7.03478 21.6C7.59512 21.8493 8.14929 22.1129 8.68996 22.4C8.82473 16.2245 8.47045 8.89945 5.7934 3.19998C5.5203 2.93598 5.2472 2.67198 4.96582 2.39998C4.41961 2.39998 3.8734 2.39998 3.31065 2.39998ZM3.18134 22.825C1.24284 24.8732 0.963188 27.0083 0.997607 29.7219C1.43629 31.6596 2.90638 32.5567 4.55203 33.6C4.96168 33.864 5.37134 34.128 5.7934 34.4C7.43166 34.2908 8.64238 33.3137 9.93134 32.4C10.9014 30.5246 10.6659 27.7687 10.0186 25.814C9.34135 24.4722 8.62959 23.3797 7.44858 22.4C5.5676 21.8511 4.87162 21.8076 3.18134 22.825Z" fill="white" fill-opacity="0.6"/>
</svg>
