<svg width="13" height="36" viewBox="0 0 13 36" fill="none" xmlns="http://www.w3.org/2000/svg">
<g clip-path="url(#clip0_334_2126)">
<path d="M3.46705 0.400024C4.49622 0.450024 4.49622 0.450024 5.63372 0.800024C7.89083 3.36431 8.50907 7.23166 9.15455 10.4C9.22961 10.7631 9.30468 11.1262 9.38201 11.5003C9.94578 14.3701 10.2003 17.1825 10.2819 20.0953C10.4441 22.1552 10.9499 24.008 11.7275 25.95C12.4561 28.1919 12.8929 30.2978 12.0796 32.55C11.1674 33.7288 10.456 34.4606 9.10039 35.2C6.49366 35.5702 4.37636 34.8334 2.16705 33.6C0.636295 32.1442 0.726617 30.6106 0.736715 28.6782C0.867053 27.6 0.867053 27.6 1.29192 26.2656C1.75543 24.728 1.92971 23.284 2.00455 21.7C2.03016 21.235 2.03016 21.235 2.05629 20.7607C2.16497 18.3977 2.17368 16.038 2.16197 13.6735C2.16066 13.3626 2.15934 13.0518 2.15798 12.7315C2.15021 11.1556 2.13616 9.58007 2.1131 8.00432C2.10785 7.41279 2.1027 6.82125 2.09765 6.22971C2.08671 5.44134 2.08671 5.44134 2.07554 4.63704C2.16795 3.18591 2.29132 1.48532 3.46705 0.400024ZM3.90039 1.20002C3.00555 3.57656 2.91956 5.70775 2.94908 8.21096C2.95031 8.60653 2.95154 9.0021 2.9528 9.40965C2.95763 10.6648 2.9685 11.9199 2.97955 13.175C2.9839 14.0295 2.98786 14.8839 2.9914 15.7383C3.00092 17.8256 3.0154 19.9128 3.03372 22C3.67722 21.802 3.67722 21.802 4.33372 21.6C6.23148 21.5045 7.44571 21.5507 9.10039 22.4C9.25348 17.8307 9.02519 13.659 7.80039 9.20002C7.71911 8.88775 7.63784 8.57547 7.5541 8.25374C7.29354 7.25841 7.02111 6.26655 6.74414 5.27502C6.66052 4.96152 6.57691 4.64802 6.49076 4.32502C6.01478 2.60734 6.01478 2.60734 4.69765 1.39534C4.43455 1.33088 4.17146 1.26643 3.90039 1.20002ZM4.06289 22.675C2.27642 24.5433 1.77353 27.3577 1.70664 29.7813C1.81227 30.8783 2.0215 31.7836 2.65455 32.725C4.21735 33.6387 5.80377 34.2589 7.6108 34.625C9.03264 34.3221 9.7824 33.7752 10.7575 32.7844C11.7593 31.2421 11.5872 29.7226 11.2671 28C10.6883 26.027 10.0136 24.4657 8.47747 22.975C6.28404 21.826 6.28404 21.826 4.06289 22.675Z" fill="white" fill-opacity="0.6"/>
</g>
<defs>
<clipPath id="clip0_334_2126">
<rect width="13" height="36" fill="white"/>
</clipPath>
</defs>
</svg>
