<svg width="21" height="36" viewBox="0 0 21 36" fill="none" xmlns="http://www.w3.org/2000/svg">
<path d="M7.52868 3.19995C9.44347 3.36564 10.2336 4.18561 11.4909 5.59995C11.4909 5.33595 11.4909 5.07195 11.4909 4.79995C13.0019 4.89801 13.6836 5.01121 14.766 6.11714C15.0255 6.49922 15.2849 6.88129 15.5523 7.27495C15.8158 7.65187 16.0794 8.0288 16.3509 8.41714C17.6376 10.6318 17.925 12.4692 17.8801 15.0234C17.8771 15.3063 17.8741 15.5893 17.871 15.8808C17.8582 17.081 17.8358 18.2809 17.8143 19.4809C17.7999 20.3617 17.7904 21.2425 17.781 22.1234C17.7718 22.6465 17.7627 23.1695 17.7532 23.7084C17.8334 25.2545 18.1636 26.5283 18.623 28C18.8561 30.1945 19.003 32.1254 17.9049 34.075C16.3696 35.3591 15.0036 35.2695 13.0758 35.2C12.4875 35.002 12.4875 35.002 11.8872 34.8C11.1118 34.7369 11.1118 34.7369 10.3023 34.75C10.0326 34.7489 9.7629 34.7479 9.48505 34.7468C8.63069 34.7734 8.63069 34.7734 7.52868 35.2C5.01191 35.3814 5.01191 35.3814 4.01217 34.675C2.60807 32.5487 3.00492 29.6369 3.17019 27.2C3.45033 26.3453 3.45033 26.3453 3.78929 25.65C5.22878 22.4199 4.05191 17.8302 3.34354 14.525C2.72952 11.6565 2.08586 8.32085 3.10364 5.47964C3.56642 4.79995 3.56642 4.79995 4.7551 4.39995C5.14736 4.79595 5.53962 5.19195 5.94377 5.59995C6.46679 4.80795 6.98981 4.01595 7.52868 3.19995ZM7.92491 3.99995C7.01751 5.83203 6.53243 7.03999 7.08293 9.04995C8.02905 11.7428 9.38343 14.2757 10.6985 16.8C10.96 16.8 11.2215 16.8 11.4909 16.8C12.5353 13.1743 12.089 9.30145 10.3023 5.99995C9.55177 5.14992 8.8757 4.63258 7.92491 3.99995ZM4.35887 5.59995C2.9307 7.76261 3.44644 10.3868 3.89918 12.8593C4.04111 13.5568 4.18614 14.2537 4.3341 14.95C4.94387 17.974 5.42084 20.9109 5.54755 24C6.43078 24.0108 7.31404 24.0185 8.19731 24.025C8.68917 24.0296 9.18104 24.0342 9.6878 24.039C10.8891 24.0057 11.9092 23.8546 13.0758 23.6C13.6449 23.5749 14.215 23.5652 14.7846 23.575C15.5078 23.5873 15.5078 23.5873 16.2457 23.6C16.8551 21.7541 16.8409 19.8842 16.9391 17.95C16.9661 17.5467 16.9932 17.1435 17.0211 16.7281C17.2277 12.5984 16.2877 9.65093 13.6454 6.44995C13.0404 5.87669 13.0404 5.87669 11.8872 5.99995C11.9158 6.22373 11.9444 6.44751 11.9738 6.67808C12.859 14.3972 12.859 14.3972 11.4909 18C10.3023 17.6 10.3023 17.6 9.64911 16.5328C9.42335 16.0682 9.1976 15.6036 8.965 15.125C8.84433 14.8776 8.72367 14.6302 8.59934 14.3753C7.53885 12.1452 6.74301 9.86371 5.99949 7.5062C5.62114 6.28837 5.62114 6.28837 4.35887 5.59995ZM10.4091 24.3187C9.52548 24.3985 8.70933 24.3604 7.82585 24.3C6.28868 24.2615 6.28868 24.2615 5.17609 25.325C3.94979 26.9381 3.88127 28.1877 3.83882 30.175C3.82401 30.6282 3.8092 31.0814 3.79394 31.5484C3.87096 32.8236 3.87096 32.8236 4.63282 33.7828C5.50578 34.4988 5.50578 34.4988 6.56907 34.3812C6.91843 34.2884 7.26779 34.1956 7.62774 34.1C7.98118 34.0113 8.33463 33.9226 8.69879 33.8312C8.96642 33.7549 9.23406 33.6786 9.50981 33.6C9.50981 33.336 9.50981 33.072 9.50981 32.8C9.76366 32.9201 10.0175 33.0402 10.279 33.164C12.4051 34.1076 13.9325 34.7472 16.2457 34C17.2849 33.4844 17.2849 33.4844 17.8306 32.4C18.245 29.7565 17.7635 27.2101 16.6419 24.8C15.8926 23.8668 15.8926 23.8668 14.636 23.925C13.2103 23.9935 11.823 24.1339 10.4091 24.3187Z" fill="white" fill-opacity="0.6"/>
</svg>
