<svg width="18" height="36" viewBox="0 0 18 36" fill="none" xmlns="http://www.w3.org/2000/svg">
<path d="M5.8688 3.59998C6.82261 3.74998 6.82261 3.74998 7.82532 3.99998C7.95445 4.26398 8.08358 4.52798 8.21663 4.79998C8.4991 4.94848 8.78157 5.09698 9.07261 5.24998C11.4718 6.88495 13.0457 9.545 13.6949 12.4C13.9761 14.2452 14.1889 16.0935 14.386 17.9498C14.5333 19.3185 14.699 20.684 14.8688 22.05C14.9253 22.5213 14.9818 22.9925 15.04 23.4781C15.2239 24.7985 15.2239 24.7985 15.6667 26.0078C16.0838 27.3303 16.1734 28.4378 16.1895 29.825C16.2006 30.2627 16.2116 30.7005 16.2231 31.1515C16.0042 32.6668 15.5114 33.3136 14.4775 34.4C13.3454 34.9786 12.6127 34.9198 11.3471 34.8C10.8499 34.5404 10.3611 34.2639 9.87967 33.975C8.53109 33.2118 7.72892 33.16 6.21119 33.4C4.73863 33.6226 4.35029 33.6201 2.90956 33C1.65903 31.6889 1.56445 31.023 1.56445 29.2C1.79447 27.6742 2.05998 26.1869 2.73837 24.8C2.86086 22.4062 2.76295 20.0695 2.4403 17.6969C1.95432 13.0222 2.27852 8.63804 4.98837 4.69998C5.27891 4.33698 5.56945 3.97398 5.8688 3.59998ZM6.26011 4.39998C6.26011 4.79598 6.26011 5.19198 6.26011 5.59998C6.38924 5.73198 6.51837 5.86398 6.65141 5.99998C6.71467 6.98435 6.76068 7.96454 6.79815 8.94998C6.9279 11.6951 7.35449 14.1838 8.21663 16.8C8.34576 16.8 8.47489 16.8 8.60793 16.8C8.69604 14.113 8.61673 11.4691 8.31445 8.79998C8.25998 8.30498 8.2055 7.80998 8.14937 7.29998C7.79154 5.86445 7.36954 5.322 6.26011 4.39998ZM5.08619 6.39998C2.24491 11.3271 3.36656 18.1411 3.91228 23.6C4.25252 23.5968 4.25252 23.5968 4.59964 23.5936C5.6341 23.5853 6.66856 23.5801 7.70304 23.575C8.05991 23.5716 8.41679 23.5683 8.78448 23.5648C9.13126 23.5635 9.47805 23.5622 9.83534 23.5609C10.153 23.5588 10.4706 23.5567 10.7978 23.5546C11.7965 23.6028 12.7206 23.776 13.6949 24C13.6628 22.483 13.6187 20.9666 13.5726 19.45C13.5638 19.0256 13.555 18.6013 13.5459 18.164C13.4295 14.6402 12.9703 11.3299 10.9558 8.37498C10.7621 8.08158 10.5684 7.78819 10.3688 7.48591C9.78702 6.68933 9.78702 6.68933 8.60793 6.39998C8.66443 6.82588 8.72092 7.25179 8.77913 7.6906C9.25339 11.4243 9.49576 15.0294 9.39054 18.8C9.00315 18.8 8.61576 18.8 8.21663 18.8C6.73388 14.6167 6.12521 10.8585 6.26011 6.39998C5.87271 6.39998 5.48532 6.39998 5.08619 6.39998ZM3.91228 24.8C2.71918 26.5858 2.16481 28.6397 2.34706 30.8C3.02411 32.1254 3.02411 32.1254 4.30358 32.8C5.47663 32.8832 6.26504 32.6987 7.43402 32.4C7.56315 32.136 7.69228 31.872 7.82532 31.6C8.69673 32.0135 9.38033 32.3906 10.0998 33.05C11.33 33.8404 12.2718 33.7322 13.6949 33.6C14.966 32.9111 14.966 32.9111 15.2601 31.6C15.4641 29.6141 15.4675 28.0484 14.6242 26.225C13.2582 24.7183 11.9943 24.0692 9.9882 23.8547C9.29286 23.8647 9.29286 23.8647 8.58347 23.875C8.11891 23.8765 7.65434 23.8781 7.1757 23.8797C5.90767 23.9964 5.03517 24.1982 3.91228 24.8Z" fill="white" fill-opacity="0.6"/>
</svg>
