<svg width="23" height="29" viewBox="0 0 23 29" fill="none" xmlns="http://www.w3.org/2000/svg">
<path d="M7.94511 0.794524C8.85988 0.67038 8.85988 0.67038 10.036 0.794524C10.7506 1.43944 11.4472 2.10278 12.1269 2.78083C12.4633 2.88734 12.7997 2.99386 13.1462 3.1036C15.5226 4.14972 16.7303 6.49915 17.6417 8.73973C18.8132 12.3612 19.1066 16.1939 19.5279 19.9472C19.6099 20.6666 19.6974 21.3854 19.7911 22.1034C20.1863 25.1549 20.1863 25.1549 19.236 26.6164C18.5303 27.3613 18.5303 27.3613 17.5633 27.8082C15.8043 27.7203 14.8553 27.5498 13.3815 26.6164C11.8104 26.4672 11.3936 26.5512 10.036 27.411C8.80761 27.5599 8.80761 27.5599 7.52693 27.411C6.56395 26.6692 5.98875 26.0776 5.43602 25.0274C5.26221 22.6698 5.3624 20.4107 5.88033 18.1002C6.78029 13.5425 6.09524 8.58132 5.43571 4.01858C5.43602 3.17809 5.43602 3.17809 6.27238 1.9863C6.68638 1.85521 7.10038 1.72411 7.52693 1.58904C7.66493 1.32685 7.80293 1.06466 7.94511 0.794524ZM8.78147 1.58904C8.78147 3.36794 9.34202 4.4122 10.1928 5.93408C11.0562 7.50611 11.8876 9.06343 12.5451 10.726C13.1098 9.2336 12.832 8.10335 12.4667 6.57963C12.3659 6.13769 12.2651 5.69575 12.1612 5.24043C11.6679 3.85803 11.0985 3.0336 10.036 1.9863C9.62202 1.85521 9.20802 1.72411 8.78147 1.58904ZM6.69056 3.17809C6.72075 3.54014 6.75094 3.90219 6.78204 4.27521C7.12427 8.81316 7.15413 13.3285 7.10874 17.8767C7.39061 17.7907 7.67247 17.7047 7.96287 17.616C8.33543 17.5054 8.70799 17.3948 9.09184 17.2808C9.45995 17.1702 9.82806 17.0596 10.2073 16.9456C12.2064 16.4645 13.7658 16.649 15.5867 17.5555C16.4072 18.0355 17.2 18.5334 17.9815 19.0685C17.6723 11.1641 17.6723 11.1641 13.7997 4.36987C13.5237 4.36987 13.2477 4.36987 12.9633 4.36987C12.9983 4.8584 13.0334 5.34694 13.0695 5.85028C13.1126 6.49892 13.1556 7.14758 13.1985 7.79624C13.222 8.11732 13.2454 8.4384 13.2696 8.76921C13.384 10.5519 13.3681 12.1437 12.9633 13.9041C11.9297 12.9222 11.8951 12.3241 11.6042 10.9743C10.9458 8.3487 9.9942 5.80652 8.36329 3.57535C7.4912 3.21648 7.4912 3.21648 6.69056 3.17809ZM7.52693 18.6712C6.10269 20.6041 6.18925 22.2826 6.43246 24.537C6.73061 25.5624 7.05121 25.9847 7.94511 26.6164C9.40051 26.5127 10.0573 26.2057 11.2906 25.4247C11.2906 25.1625 11.2906 24.9003 11.2906 24.6301C11.5633 24.7735 11.8361 24.9169 12.1171 25.0646C14.8864 26.5265 14.8864 26.5265 17.9815 26.6164C19.1821 25.4759 19.1535 24.6346 19.236 23.0411C18.6131 20.3288 16.8198 19.255 14.507 17.6796C12.1378 16.422 9.71747 17.4745 7.52693 18.6712Z" fill="white" fill-opacity="0.6"/>
</svg>
