<svg width="13" height="37" viewBox="0 0 13 37" fill="none" xmlns="http://www.w3.org/2000/svg">
<g clip-path="url(#clip0_334_2134)">
<path d="M9.38986 1.20654C10.1346 1.48304 10.1346 1.48304 10.8343 2.01089C11.3438 3.49182 11.2285 5.05506 11.2053 6.61547C11.2007 7.22056 11.1962 7.82565 11.1919 8.43075C11.183 9.37197 11.1731 10.3131 11.1608 11.2543C11.1192 14.6517 11.1595 17.995 11.5128 21.3734C11.541 21.644 11.5693 21.9146 11.5984 22.1935C11.8192 24.095 12.2145 25.8966 12.6399 27.75C12.7967 28.8454 12.8677 29.9364 12.9333 31.0428C12.9563 31.3184 12.9793 31.5939 13.0031 31.8778C13.1142 33.6881 12.9862 34.8017 11.9176 36.1957C10.2501 37.386 8.18697 37.118 6.27527 37.1006C5.93081 37.1037 5.58634 37.1068 5.23144 37.11C4.90093 37.109 4.57043 37.1079 4.22992 37.1068C3.92938 37.1059 3.62885 37.105 3.3192 37.1041C2.52874 37 2.52874 37 1.44541 36.1957C1.03141 33.5248 1.39117 30.9238 2.07736 28.3533C2.88744 25.3036 3.25184 22.2549 3.61208 19.1033C5.13313 6.02437 5.13313 6.02437 7.99055 2.18684C8.66763 1.60872 8.66763 1.60872 9.38986 1.20654ZM9.02874 2.41306C5.22294 5.897 4.83575 14.7156 4.3343 19.7065C4.31454 20.5106 4.30229 21.316 4.3343 22.1196C4.70297 21.9205 4.70297 21.9205 5.07909 21.7174C7.12584 20.9414 8.48187 21.2325 10.4732 22.1196C10.354 15.7492 10.2349 9.37872 10.1121 2.81524C9.75458 2.68252 9.39708 2.5498 9.02874 2.41306ZM5.05652 22.9239C2.57411 26.5207 2.30656 31.3852 2.52874 35.7935C4.5426 36.9149 8.26165 36.3972 10.428 35.8689C10.9866 35.6325 10.9866 35.6325 11.5565 35.3913C12.5181 32.1784 11.9689 28.1504 11.1954 24.9348C10.3706 23.1209 9.65529 22.4712 7.94541 21.7174C6.60188 21.7174 6.13586 22.0444 5.05652 22.9239Z" fill="white" fill-opacity="0.6"/>
<path d="M0.361328 34.9891C1.08355 35.3913 1.08355 35.3913 1.08355 35.3913L0.361328 34.9891Z" fill="white" fill-opacity="0.6"/>
<path d="M0.361328 25.7391C1.08355 26.1413 1.08355 26.1413 1.08355 26.1413L0.361328 25.7391Z" fill="white" fill-opacity="0.6"/>
</g>
<defs>
<clipPath id="clip0_334_2134">
<rect width="13" height="37" fill="white"/>
</clipPath>
</defs>
</svg>
