<svg width="10" height="37" viewBox="0 0 10 37" fill="none" xmlns="http://www.w3.org/2000/svg">
<g clip-path="url(#clip0_334_2138)">
<path d="M7.03639 2.41309C7.93917 2.5639 7.93917 2.5639 8.88824 2.81526C9.75257 4.69235 9.24843 7.03822 8.91139 9.02382C8.18282 13.5332 8.06542 18.033 8.26324 22.5972C8.27604 22.9148 8.28884 23.2323 8.30203 23.5595C8.39952 25.363 8.69712 26.8415 9.25861 28.5544C9.65911 31.2163 9.89332 33.6855 8.88824 36.1957C7.46988 37.2225 6.29545 37.1332 4.65213 37.1257C4.36925 37.1322 4.08638 37.1387 3.79493 37.1454C2.54393 37.1465 1.68507 37.109 0.550568 36.5036C-0.353784 35.3386 -0.153556 34.3348 -0.0990272 32.8715C0.0224376 31.5137 0.245703 30.21 0.522265 28.8803C0.745571 27.7216 0.913664 26.5664 1.0714 25.3951C1.45965 22.6158 1.90333 19.8499 2.38443 17.0879C2.47641 16.5551 2.56647 16.0219 2.65461 15.4883C3.41326 10.9 4.36413 6.17459 7.03639 2.41309ZM7.40676 3.61961C3.4093 9.32455 3.08607 17.6805 2.22157 24.5327C2.46602 24.5327 2.71046 24.5327 2.96232 24.5327C2.96232 24.2672 2.96232 24.0018 2.96232 23.7283C4.62856 23.3804 5.56101 23.2018 7.03639 24.1305C7.04179 23.8659 7.04719 23.6014 7.05276 23.3288C7.17036 18.1399 7.42407 13.0977 8.28784 7.98854C8.4892 6.62847 8.56366 5.39459 8.51787 4.02178C8.1512 3.88906 7.78454 3.75635 7.40676 3.61961ZM2.22157 26.1413C0.855923 29.1256 0.679704 32.1126 0.740093 35.3913C2.83894 36.4043 5.14772 36.5249 7.40676 36.1957C8.1387 35.8095 8.1387 35.8095 8.51787 34.9892C8.92835 31.6402 8.81882 28.2111 7.03639 25.337C6.34182 24.4739 6.09413 24.1691 5.04565 23.9294C3.60576 24.2272 3.12381 24.9038 2.22157 26.1413Z" fill="white" fill-opacity="0.6"/>
</g>
<defs>
<clipPath id="clip0_334_2138">
<rect width="10" height="37" fill="white"/>
</clipPath>
</defs>
</svg>
