<svg width="14" height="44" viewBox="0 0 14 44" fill="none" xmlns="http://www.w3.org/2000/svg">
<path d="M10.0752 2.05631C10.8002 2.37838 10.8002 2.37838 11.2002 2.77478C11.2309 3.8255 11.2365 4.86599 11.2252 5.91653C11.2217 6.57909 11.2182 7.24166 11.2147 7.90422C11.211 8.42625 11.211 8.42625 11.2072 8.95883C11.1268 19.6775 11.1268 19.6775 12.2252 30.3243C12.3752 31.2921 12.5238 32.26 12.6695 33.2284C12.7861 33.9974 12.9091 34.7654 13.033 35.5332C13.1525 36.7906 13.1989 37.6464 12.8002 38.8469C10.9198 40.7982 8.35907 42.4675 5.67519 43.0586C3.67498 42.6699 2.74342 41.2398 1.60019 39.6396C0.675249 38.2354 0.752669 37.1774 0.900185 35.527C0.935248 35.0907 0.97031 34.6543 1.00644 34.2047C1.20019 32.9009 1.20019 32.9009 1.58358 31.8233C2.04905 30.3699 2.27103 28.9401 2.45956 27.4334C2.53968 26.8293 2.61989 26.2252 2.70019 25.6211C2.74092 25.3085 2.78165 24.996 2.82362 24.6739C5.83879 1.69646 5.83879 1.69646 10.0752 2.05631ZM9.20019 3.17117C5.00639 10.4101 3.8632 19.8946 3.60019 28.1441C4.04491 27.8537 4.04491 27.8537 4.49862 27.5573C6.08824 26.6881 6.99993 26.8134 8.80019 26.955C9.32819 27.2166 9.85619 27.4782 10.4002 27.7478C10.4002 19.6375 10.4002 11.5272 10.4002 3.17117C10.0042 3.17117 9.60819 3.17117 9.20019 3.17117ZM4.00019 28.9369C2.32004 31.3528 1.60019 34.1811 1.60019 37.0878C2.12804 38.886 2.99154 40.3554 4.40019 41.6216C5.30437 42.0738 5.30437 42.0738 6.40019 42.018C8.58073 41.0933 11.4461 39.7514 12.4064 37.4966C12.4277 36.4172 12.2645 35.5341 12.0002 34.4865C11.8919 33.8733 11.8919 33.8733 11.7814 33.2478C11.3097 30.9218 10.8783 29.1367 8.80019 27.7478C6.68166 26.9884 5.64738 27.482 4.00019 28.9369Z" fill="white" fill-opacity="0.6"/>
</svg>
