<svg width="11" height="36" viewBox="0 0 11 36" fill="none" xmlns="http://www.w3.org/2000/svg">
<g clip-path="url(#clip0_334_2142)">
<path d="M8.3455 1.20002C10.0479 3.05935 9.92786 5.13972 9.95609 7.58127C9.9686 8.31565 9.9812 9.05002 9.99387 9.7844C10.0117 10.9348 10.0285 12.0851 10.0436 13.2356C10.1068 17.8271 10.3324 22.261 11.0007 26.8C11.3249 29.8014 11.3249 29.8014 10.5843 31.1688C10.0099 31.9248 9.4115 32.557 8.72481 33.2C8.39697 33.5125 8.39697 33.5125 8.0625 33.8313C6.98317 34.754 6.33852 35.1823 4.93171 35.275C3.23481 34.5667 1.59244 33.3572 0.759294 31.6C0.712567 30.8345 0.692697 30.0671 0.688173 29.3C0.682795 28.8896 0.677416 28.4791 0.671875 28.0563C0.759294 26.8 0.759294 26.8 1.12119 25.7026C1.55186 24.2886 1.72931 22.9787 1.88389 21.5031C1.92875 21.0915 1.92875 21.0915 1.97451 20.6716C2.0696 19.798 2.16158 18.9241 2.25283 18.05C3.63872 4.80481 3.63872 4.80481 5.83257 1.65002C6.72927 0.995366 7.28178 1.00372 8.3455 1.20002ZM7.20757 2.00002C4.62258 4.16201 4.34235 7.97811 3.93602 11.225C3.88868 11.5868 3.84134 11.9486 3.79257 12.3214C3.38768 15.5414 3.16138 18.755 3.03516 22C3.2547 21.9361 3.47424 21.8721 3.70043 21.8063C6.10156 21.225 7.44694 21.4588 9.48343 22.8C9.44833 20.2804 9.40761 17.7609 9.36304 15.2414C9.34855 14.3848 9.33532 13.5282 9.32341 12.6715C9.30604 11.4382 9.28405 10.2051 9.26118 8.9719C9.2568 8.59056 9.25242 8.20921 9.2479 7.81632C9.20758 5.88914 9.15454 4.17056 8.3455 2.40002C7.96998 2.26802 7.59447 2.13602 7.20757 2.00002ZM3.03516 23.6C1.62447 25.9793 1.05991 28.4143 1.51791 31.2C2.35539 32.7374 3.37162 33.7179 4.93171 34.4C5.87811 34.2973 5.87811 34.2973 6.82826 33.6C7.09034 33.4355 7.35242 33.2711 7.62244 33.1016C9.01189 32.0671 9.76149 31.3433 10.0968 29.5438C10.1422 27.216 10.0742 25.1312 8.72481 23.2C7.83611 22.2305 7.36409 22.0246 6.09335 21.825C4.58396 22.0524 4.07395 22.4181 3.03516 23.6Z" fill="white" fill-opacity="0.6"/>
</g>
<defs>
<clipPath id="clip0_334_2142">
<rect width="11" height="36" fill="white"/>
</clipPath>
</defs>
</svg>
