<svg width="13" height="36" viewBox="0 0 13 36" fill="none" xmlns="http://www.w3.org/2000/svg">
<path d="M8.38645 0C9.19895 0.3 9.19895 0.3 10.0639 0.8C10.5214 2.03336 10.5421 3.22048 10.556 4.52002C10.5617 4.94331 10.5673 5.3666 10.5732 5.80272C10.5775 6.25815 10.5819 6.71358 10.5864 7.18281C10.6002 8.14922 10.6142 9.11563 10.6282 10.082C10.6481 11.6041 10.6667 13.1261 10.6832 14.6481C10.6999 16.1181 10.7215 17.5879 10.7437 19.0578C10.7472 19.5108 10.7507 19.9638 10.7544 20.4305C10.7917 22.7172 10.9707 24.6351 11.7413 26.8C11.8822 28.1406 11.8822 28.1406 11.8985 29.45C11.9104 29.8842 11.9223 30.3183 11.9346 30.7656C11.6961 32.2886 11.1974 32.9206 10.0639 34C8.32081 34.9861 6.17977 35.5948 4.1929 35.2C2.78449 34.4599 1.77205 33.6529 0.838061 32.4C0.0759583 29.7244 1.05191 27.1203 1.85993 24.5509C2.54366 22.2391 2.74094 19.9657 2.90863 17.575C3.14842 14.3261 3.59672 11.2032 4.35016 8.025C4.43283 7.6679 4.51551 7.31079 4.60069 6.94287C5.94941 1.54971 5.94941 1.54971 8.38645 0ZM7.96709 1.2C6.68856 3.71306 5.81667 6.18007 5.16266 8.9C5.0279 9.4517 5.0279 9.4517 4.89042 10.0146C3.91918 14.1401 3.68369 18.1813 3.77354 22.4C4.02167 22.3041 4.26979 22.2082 4.52543 22.1094C4.85681 21.9908 5.18818 21.8722 5.52959 21.75C5.85556 21.6293 6.18153 21.5087 6.51737 21.3844C7.81416 21.1523 8.45714 21.5034 9.64451 22C9.66577 19.2949 9.68046 16.5899 9.69058 13.8848C9.6948 12.9644 9.70053 12.0441 9.70778 11.1238C9.71795 9.80129 9.72271 8.47882 9.72642 7.15625C9.73075 6.74453 9.73507 6.33281 9.73954 5.90862C9.73963 5.3322 9.73963 5.3322 9.73973 4.74414C9.74159 4.40661 9.74345 4.06907 9.74537 3.72131C9.63552 2.71783 9.33387 2.06668 8.8058 1.2C8.52903 1.2 8.25225 1.2 7.96709 1.2ZM3.77354 23.6C2.08677 26.0768 1.04168 29.0424 1.67677 32C2.4492 33.1756 3.27002 33.8617 4.61225 34.4C6.75052 34.4208 8.80605 33.6498 10.4832 32.4C11.515 29.4475 10.8907 26.4175 9.64451 23.6C8.91886 22.5377 8.91886 22.5377 7.96709 22C5.91793 22 5.33406 22.3596 3.77354 23.6Z" fill="white" fill-opacity="0.6"/>
</svg>
