<svg width="20" height="34" viewBox="0 0 20 34" fill="none" xmlns="http://www.w3.org/2000/svg">
<g clip-path="url(#clip0_334_2146)">
<path d="M9.69318 1.53198C10.5658 1.97675 10.5658 1.97675 11.0611 2.98983C11.1895 3.46684 11.1895 3.46684 11.3205 3.95349C11.6941 3.5621 12.0677 3.1707 12.4526 2.76745C13.5441 3.14863 13.9052 3.44751 14.4573 4.52181C14.9656 7.28107 14.4058 9.95741 13.9058 12.6835C13.1744 16.701 12.3889 21.0342 13.962 24.907C14.3984 27.4064 14.5677 29.6693 13.5847 32.0233C12.9715 32.814 12.9715 32.814 12.0753 33.2093C11.3556 33.1443 10.6351 33.0728 9.92313 32.9452C8.23158 32.689 6.08576 32.3933 4.52808 33.2093C2.79212 33.2593 1.46451 33.0273 -0.0238043 32.0727C-1.11087 30.2358 -0.982279 28.5954 -0.754936 26.4884C-0.518002 25.5617 -0.266224 24.639 -0.000219405 23.7209C0.514288 20.6808 0.339371 17.681 0.0870263 14.6237C-0.221679 10.2376 0.992824 7.30943 3.5611 3.92878C3.88021 3.67601 4.19931 3.42323 4.52808 3.1628C5.2828 3.29458 6.03752 3.42636 6.79223 3.55815C8.72856 1.57899 8.72856 1.57899 9.69318 1.53198ZM8.51393 2.90798C6.25814 5.67899 5.56339 8.23585 5.59677 11.8728C5.68826 12.9962 6.01723 13.9818 6.41488 15.0233C7.96125 13.6546 8.60693 12.1191 9.36299 10.2049C9.48533 9.92134 9.60767 9.63773 9.73371 9.34553C10.5959 7.18492 10.6925 5.4482 10.1885 3.1628C10.0639 2.90187 9.9394 2.64094 9.8111 2.3721C9.02364 2.28169 9.02364 2.28169 8.51393 2.90798ZM3.6348 5.25382C1.30791 7.80829 0.950847 10.5534 1.00232 13.9635C1.08707 16.5624 1.31888 19.1519 1.50921 21.7442C4.87148 21.7442 8.23374 21.7442 11.6979 21.7442C12.038 19.1724 12.038 19.1724 12.375 16.6001C12.6034 14.9001 12.8612 13.2314 13.2412 11.5609C13.5719 10.0697 13.6746 8.67742 13.6554 7.14099C13.6518 6.48739 13.6518 6.48739 13.6481 5.82059C13.6528 4.7579 13.6528 4.7579 13.2073 3.95349C12.2371 4.34244 11.7859 4.57565 11.2794 5.54589C11.1728 5.86944 11.0662 6.19299 10.9564 6.52635C10.8336 6.88411 10.7108 7.24187 10.5842 7.61047C10.4614 7.98556 10.3386 8.36065 10.212 8.7471C9.31502 11.4516 8.35785 13.8502 6.79223 16.2093C5.51025 14.9454 5.32468 14.067 5.2489 12.2203C5.21037 9.45294 5.42936 6.70836 5.66016 3.95349C4.82399 3.95349 4.22964 4.7089 3.6348 5.25382ZM1.88657 22.1395C0.294439 24.8837 -0.0988023 26.8448 -0.000219405 30.0465C0.246893 31.2596 0.246893 31.2596 1.06405 31.6495C2.76486 32.3265 2.76486 32.3265 4.53251 32.2148C5.16513 31.8985 5.79038 31.5661 6.41488 31.2326C7.12684 31.3577 7.12684 31.3577 7.92431 31.6279C8.55091 31.8099 9.18005 31.9825 9.8111 32.1468C10.1302 32.235 10.4493 32.3231 10.7781 32.414C11.7433 32.5087 11.7433 32.5087 12.5602 31.8148C13.4164 30.5214 13.3965 29.6828 13.3724 28.1192C13.3719 27.6473 13.3714 27.1754 13.3709 26.6891C13.1942 25.1907 12.8231 24.2138 12.0753 22.9302C10.7138 22.217 9.10576 22.5313 7.60886 22.5596C6.60076 22.5387 5.86311 22.4126 4.90544 22.1395C4.37135 22.114 3.83624 22.1055 3.30167 22.1148C2.83469 22.123 2.36771 22.1311 1.88657 22.1395Z" fill="white" fill-opacity="0.6"/>
</g>
<defs>
<clipPath id="clip0_334_2146">
<rect width="20" height="34" fill="white"/>
</clipPath>
</defs>
</svg>
