<svg width="19" height="35" viewBox="0 0 19 35" fill="none" xmlns="http://www.w3.org/2000/svg">
<path d="M11.6945 2.03796C13.1413 2.68161 13.3562 3.61426 13.9535 5.09564C14.1515 5.57441 14.3495 6.05318 14.5535 6.54647C15.3658 8.66978 15.4986 10.4253 15.4874 12.6876C15.4875 13.0379 15.4876 13.3882 15.4877 13.7491C15.478 15.8403 15.3679 17.8884 15.1658 19.9706C14.9764 22.2548 15.2835 23.9884 15.9435 26.16C16.3843 27.7263 16.4451 28.8449 16.2296 30.4706C15.2218 31.9638 14.5904 32.4394 12.8897 32.8898C11.4796 32.9412 11.4796 32.9412 10.3168 32.6581C8.96863 32.515 8.66492 32.6915 7.52124 33.353C6.42545 33.974 5.96115 34.1756 4.67618 34.228C3.16095 33.5975 2.25995 32.8243 1.58374 31.2942C1.21689 29.0297 1.47563 26.959 2.12801 24.7831C2.81985 22.4567 2.97081 20.1718 3.14233 17.7574C3.55567 12.329 4.32022 7.63034 8.30827 3.76705C10.2894 2.06715 10.2894 2.06715 11.6945 2.03796ZM11.0837 2.8824C9.9174 4.09569 9.89726 5.54514 9.64884 7.1802C9.59664 7.51294 9.54443 7.84568 9.49064 8.1885C9.11985 10.6863 8.96003 13.119 9.10457 15.6471C9.36582 15.5112 9.62707 15.3753 9.89624 15.2353C10.7157 12.5226 10.8375 9.93522 10.9121 7.11184C11.0035 4.65468 11.0035 4.65468 11.8754 3.29417C11.6142 3.15829 11.3529 3.0224 11.0837 2.8824ZM7.57072 5.68755C4.88155 9.88365 4.31838 13.7551 4.13191 18.6839C4.11482 19.1048 4.09773 19.5257 4.08012 19.9594C4.03835 20.9925 3.99793 22.0257 3.95874 23.0589C4.28957 22.9582 4.28957 22.9582 4.62709 22.8555C5.6193 22.6295 6.49991 22.6005 7.51505 22.6069C7.88499 22.6082 8.25492 22.6096 8.63607 22.6109C9.01927 22.6144 9.40247 22.6178 9.79728 22.6214C10.3813 22.6242 10.3813 22.6242 10.977 22.627C11.9362 22.6318 12.8954 22.6386 13.8546 22.6471C15.3488 13.4406 15.3488 13.4406 12.6671 4.94123C12.4058 4.94123 12.1446 4.94123 11.8754 4.94123C11.867 5.45079 11.867 5.45079 11.8584 5.97064C11.7417 8.91004 11.3695 11.5283 10.5395 14.3346C10.4567 14.6226 10.374 14.9105 10.2887 15.2072C10.0354 16.0154 10.0354 16.0154 9.5004 17.2942C9.10853 17.4301 8.71665 17.5659 8.3129 17.7059C8.05582 13.3873 8.82425 9.18449 9.5004 4.94123C8.28316 4.79813 8.28316 4.79813 7.57072 5.68755ZM3.95874 24.2942C2.60589 26.1959 2.10449 27.6479 2.22542 30.0219C2.46782 31.4126 2.90142 32.067 3.95874 32.9412C5.3059 33.2007 6.21335 33.2922 7.39445 32.4893C7.9788 31.9706 8.54258 31.4272 9.10457 30.8824C9.49645 30.7465 9.88832 30.6106 10.2921 30.4706C10.4227 30.8783 10.5533 31.2859 10.6879 31.7059C12.0437 32.0667 12.8429 32.1991 14.1762 31.7059C15.1422 30.9242 15.1422 30.9242 15.4379 29.5956C15.4379 27.68 15.1906 25.9653 14.2504 24.2942C12.6499 22.9242 11.0992 22.87 9.10457 22.9045C8.82801 22.8997 8.55146 22.8949 8.26652 22.89C6.4942 22.9004 5.36047 23.1574 3.95874 24.2942Z" fill="white" fill-opacity="0.6"/>
</svg>
