<svg width="21" height="30" viewBox="0 0 21 30" fill="none" xmlns="http://www.w3.org/2000/svg">
<path d="M12.1582 0.755249C12.4606 0.78103 12.763 0.806812 13.0745 0.833374C13.2053 1.24587 13.336 1.65837 13.4707 2.08337C14.4514 2.28962 14.4514 2.28962 15.4519 2.50004C15.4233 2.79545 15.3947 3.09086 15.3652 3.39522C15.0717 6.93646 15.0117 10.457 15.0061 14.0105C15.0043 14.4898 15.0025 14.9691 15.0007 15.4629C15.0015 15.9171 15.0022 16.3713 15.003 16.8392C15.0037 17.4512 15.0037 17.4512 15.0044 18.0756C15.0509 19.0664 15.2039 19.8822 15.4519 20.8334C15.8383 25.7045 15.8383 25.7045 15.1067 27.5261C14.6347 28.099 14.6347 28.099 13.4707 28.75C12.1335 28.698 12.1335 28.698 10.6972 28.3334C8.59119 27.8225 8.59119 27.8225 6.73489 28.75C5.52795 28.9478 4.37689 28.9396 3.16885 28.75C2.16554 27.8928 2.02148 27.2304 1.65824 25.9375C1.58395 24.5834 1.58395 24.5834 1.94612 23.1608C2.42406 21.2544 2.56714 19.3602 2.72764 17.4C3.60476 7.02816 3.60476 7.02816 7.15588 3.85258C7.74149 3.45652 8.33801 3.07826 8.9389 2.70837C9.90612 2.14975 9.90612 2.14975 10.499 1.38025C11.0934 0.833374 11.0934 0.833374 12.1582 0.755249ZM11.8858 1.66671C9.99615 3.33163 9.21937 4.96269 8.71602 7.50004C8.63371 8.63655 8.65678 9.69127 8.71602 10.8334C9.55501 9.50997 10.1185 8.15233 10.6972 6.69275C11.9497 3.55317 11.9497 3.55317 12.6783 2.08337C12.4168 1.94587 12.1553 1.80837 11.8858 1.66671ZM12.9755 3.61983C10.5008 6.26739 9.78224 10.6439 9.11225 14.1667C8.98149 14.3042 8.85074 14.4417 8.71602 14.5834C8.10252 13.2931 8.26304 11.9353 8.27027 10.5209C8.26873 10.2276 8.2672 9.93435 8.26562 9.6322C8.26868 7.90452 8.39538 6.28532 8.71602 4.58337C8.32376 4.58337 7.93149 4.58337 7.52734 4.58337C6.8771 5.40904 6.8771 5.40904 6.3139 6.48442C6.11317 6.8373 5.91244 7.19018 5.70563 7.55375C4.47035 10.2133 4.1681 12.902 3.91178 15.8073C3.87756 16.1718 3.84334 16.5362 3.80808 16.9117C3.7248 17.802 3.64462 18.6927 3.56508 19.5834C4.63541 19.1534 5.53777 18.7561 6.48725 18.073C8.12412 17.1713 9.50788 17.2686 11.2714 17.7832C12.1448 18.0861 13.0076 18.4058 13.867 18.75C13.8624 18.3966 13.8578 18.0432 13.853 17.6791C13.8304 14.5794 13.9394 11.5445 14.175 8.45382C14.2939 6.60569 14.2997 4.76791 14.2632 2.91671C13.7341 2.87504 13.7341 2.87504 12.9755 3.61983ZM5.67003 19.5052C5.29258 19.8001 4.91513 20.095 4.52624 20.3988C3.46154 21.3417 2.83201 22.0069 2.65345 23.4896C2.65192 23.8506 2.65038 24.2115 2.64881 24.5834C2.64217 24.9443 2.63553 25.3053 2.62868 25.6771C2.7016 26.6862 2.7016 26.6862 3.29732 27.4235C3.99445 28.0448 3.99445 28.0448 5.19951 27.8907C7.02246 27.4269 8.62024 26.695 10.3009 25.8334C10.3009 26.2459 10.3009 26.6584 10.3009 27.0834C11.4724 27.6993 12.5762 27.5252 13.867 27.5C14.9756 25.5102 14.964 23.4955 14.6594 21.25C13.4361 19.379 11.9256 18.6377 9.9047 17.9167C8.02957 17.656 7.14678 18.3294 5.67003 19.5052Z" fill="white" fill-opacity="0.6"/>
</svg>
