<svg width="10" height="33" viewBox="0 0 10 33" fill="none" xmlns="http://www.w3.org/2000/svg">
<path fill-rule="evenodd" clip-rule="evenodd" d="M4.29256 0.963878L4.99973 0.972028C7.32932 0.896371 8.45973 1.16663 8.75781 3.92798L8.74973 5.38151C8.7574 6.74666 8.75433 7.87858 8.38099 9.1786C7.80551 10.9064 7.4866 12.2768 7.5478 14.1208C7.68144 17.0583 7.5487 19.9389 7.26872 22.8625L7.13335 24.1811C7.12742 24.2423 7.12152 24.3033 7.11563 24.3642C6.87081 26.8962 6.64644 29.2167 5.51697 31.4828C4.76266 31.8384 4.76266 31.8384 4.13766 31.8621C3.46624 30.0902 3.35205 28.502 3.30001 26.6123C3.20377 22.1686 2.87472 17.826 2.28085 13.4322C2.18413 12.7248 2.02575 11.8953 1.85494 11.0006C1.25276 7.84664 0.496148 3.88375 1.74273 1.6136C2.5818 1.01866 3.30726 0.977774 4.29256 0.963878ZM6.61359 19.9975C6.67053 18.3208 6.63088 16.6408 6.55145 13.2759H3.44801C3.69385 16.8144 3.84878 20.3501 3.96525 23.8966C4.03795 26.3245 4.111 28.7062 4.48249 31.1035C5.40368 29.9994 5.72648 28.9692 5.97587 27.5058L6.09887 26.6703C6.40402 23.338 6.55682 21.6694 6.61359 19.9975ZM7.24111 1.8966C7.9242 3.4489 7.9977 4.61768 7.88766 6.32979L7.82031 7.63811L7.5 9.53448C7.17923 11.2726 6.94438 11.5008 6.0616 12.3589C5.90253 12.5135 5.72241 12.6886 5.51697 12.8966C5.08913 12.91 4.86908 12.9169 4.6593 12.8738C4.43715 12.8282 4.22652 12.7266 3.79283 12.5173C2.01441 9.8413 1.84693 5.8875 2.0687 2.65522C2.71989 1.77193 2.71989 1.77193 3.8063 1.82251L5.04283 1.84918L6.28475 1.86993L7.24111 1.8966Z" fill="white" fill-opacity="0.6"/>
<path d="M10 10.2413C9.31034 10.6206 9.31034 10.6206 9.31034 10.6206L10 10.2413Z" fill="white" fill-opacity="0.6"/>
</svg>
