<svg width="10" height="36" viewBox="0 0 10 36" fill="none" xmlns="http://www.w3.org/2000/svg">
<path fill-rule="evenodd" clip-rule="evenodd" d="M4.51476 1.46546L5.92679 1.46842C6.12611 1.468 6.31973 1.46409 6.50897 1.46026C7.48152 1.44061 8.33856 1.42328 9.26013 1.89474C9.53874 2.70844 9.63178 3.4335 9.67969 4.29424L9.67679 5.23421C9.67883 5.88966 9.66162 6.54532 9.6305 7.2C9.28533 9.38265 9.18007 11.5222 9.114 13.7331C9.0819 14.9235 9.07574 16.1606 9.06945 17.4243C9.04138 23.0578 9.01069 29.2182 6.66753 34.1053C5.85738 34.6737 5.85734 34.6737 5.18605 34.8632C4.42451 33.6944 4.33527 33.0693 4.26736 31.7015L4.23698 30.8842L4.15451 29.14C4.08815 27.5847 4.01505 26.0299 3.93687 24.4752L3.88976 23.5495C3.77421 21.2561 3.64229 18.9681 3.42535 16.6818L3.3342 15.7974C3.23804 14.8162 3.11394 13.8601 2.96383 12.8842C2.39407 11.014 2.13543 9.43917 2.1399 7.49457L2.15365 6.53684C2.15378 6.35869 2.15307 6.18265 2.15238 6.00837C2.1467 4.58701 2.14149 3.28204 2.59346 1.89474C2.90226 1.73676 3.08233 1.64464 3.27286 1.58728C3.53937 1.50704 3.82635 1.49481 4.51476 1.46546ZM7.83937 20.6986C7.87709 18.9361 7.84429 17.1721 7.77865 13.6421C6.94531 14.0684 6.94531 14.0684 5.51013 14.0447L4.07494 14.0211L4.08415 14.1604C4.23999 16.5197 4.39583 18.8789 4.53935 21.239C4.60028 22.2492 4.66147 23.2595 4.72309 24.2697C4.75406 24.7771 4.78493 25.2846 4.81568 25.7921L4.90828 27.3545L5.00087 28.8607C5.10005 30.5081 5.26717 32.1021 5.55642 33.7263H5.92679C6.61655 31.9881 7.17093 30.3967 7.39905 28.5215L7.47772 27.7342C7.69367 24.2181 7.8017 22.4591 7.83937 20.6986ZM8.14902 2.27368C9.53756 5.11509 8.79961 8.53683 7.87124 11.4868C7.71634 12.019 7.64314 12.2704 7.52935 12.5018C7.42741 12.7092 7.2929 12.9005 7.0379 13.2632C6.13013 13.6464 6.13013 13.6464 5.18605 13.6421C4.03215 12.8222 3.74397 12.301 3.42679 10.8947L3.3342 9.85263L2.96383 6.4421C2.89827 4.69815 2.92378 3.87144 3.70457 2.27368H8.14902Z" fill="white" fill-opacity="0.6"/>
</svg>
