<svg width="14" height="38" viewBox="0 0 14 38" fill="none" xmlns="http://www.w3.org/2000/svg">
<path d="M7.39735 0.229426C6.31207 0.854014 5.48798 1.58337 4.57744 2.47098C4.26462 2.77132 3.95181 3.07166 3.62952 3.3811C2.64372 4.47617 2.52323 5.13736 2.46005 6.64672C2.51005 7.97343 2.69572 9.05969 3.00692 10.3397C4.69603 18.3943 4.59897 26.9373 4.04555 35.133C4.00052 35.832 3.97303 36.5322 3.94923 37.2323C4.30821 37.6162 4.30821 37.6162 5.47487 37.6402C6.87879 37.2148 7.04068 37.1506 7.78577 35.9369C10.7174 30.1624 10.9686 24.0087 11.3718 17.6058C11.6408 12.7797 11.6408 12.7797 12.4309 8.02877C12.7644 6.19363 12.414 4.65925 11.6223 2.99876C9.08049 -0.219771 9.08049 -0.219771 7.39735 0.229426ZM9.76013 1.96719C11.1348 3.35019 11.5179 4.60326 11.5999 6.59724C11.5435 9.00037 11.0456 11.2997 9.76013 13.2904C8.64781 14.038 8.11648 14.0898 6.82103 13.8182C5.41349 13.0273 4.53944 12.0772 3.89735 10.5166C3.32865 8.50073 2.8794 6.62034 3.59026 4.60608C4.78647 3.1514 6.00894 1.82264 7.75352 1.20552C8.72491 1.05182 8.72491 1.05182 9.76013 1.96719ZM10.4108 13.4344C10.7487 25.573 10.7487 25.573 6.28257 36.3927C5.71784 36.9676 5.71784 36.9676 4.66718 36.8485C4.69257 36.6402 4.71797 36.4318 4.74413 36.2172C5.07494 33.1739 5.0814 30.1449 5.07103 27.0846C5.07071 26.8151 5.07039 26.5457 5.07006 26.268C5.06412 21.9812 4.9558 17.7109 4.66718 13.4344C4.87865 13.5546 5.09013 13.6748 5.30801 13.7987C6.42579 14.3657 7.38249 14.5165 8.6159 14.5859C9.59326 14.0146 9.59326 14.0146 10.4108 13.4344Z" fill="white" fill-opacity="0.6"/>
</svg>
