<svg width="13" height="34" viewBox="0 0 13 34" fill="none" xmlns="http://www.w3.org/2000/svg">
<path d="M6.42424 0.944424C4.75639 1.77161 3.23227 2.78866 2.03167 4.15553C1.47744 5.91765 1.72368 7.25612 2.18401 9.01942C3.0305 12.3079 3.3057 15.3552 3.26152 18.7206C3.25639 19.4821 3.25137 20.2436 3.24645 21.005C3.23632 22.1964 3.22488 23.3878 3.21144 24.5791C3.19923 25.7351 3.19197 26.891 3.18535 28.047C3.17988 28.4055 3.17442 28.764 3.16878 29.1333C3.16741 29.4639 3.16604 29.7944 3.16462 30.135C3.16008 30.5718 3.16008 30.5718 3.15544 31.0174C3.25042 31.7333 3.25042 31.7333 4.06292 32.4889C5.02776 32.5597 5.02776 32.5597 6.09417 32.1111C9.3362 27.6601 9.85578 21.0861 10.7041 15.9053C10.8943 14.7491 11.0929 13.5943 11.2921 12.4393C11.4161 11.6974 11.5396 10.9554 11.6626 10.2133C11.7219 9.87165 11.7811 9.53003 11.842 9.17807C12.1479 7.26723 12.2478 5.66896 11.7817 3.77776C11.0739 2.95432 11.0739 2.95432 10.2074 2.31387C9.92361 2.09668 9.63978 1.87948 9.34734 1.65571C8.32189 0.998961 7.66424 0.680861 6.42424 0.944424ZM10.5629 3.77776C11.3356 5.21478 11.1541 6.87712 10.7391 8.39963C10.2075 9.81789 9.89998 10.485 8.53167 11.3333C6.87835 11.537 6.87835 11.537 5.28167 11.3333C3.96719 10.359 2.98553 9.05242 2.69024 7.50389C2.57331 5.99319 2.51511 4.95443 3.49797 3.69659C5.09515 2.3231 5.09515 2.3231 7.13677 1.76491C8.75237 1.96748 9.39814 2.74385 10.5629 3.77776ZM10.1567 11.3333C9.95282 14.6122 9.44255 17.8048 8.76762 21.0254C8.60738 21.7952 8.45472 22.5661 8.30236 23.3373C7.75023 26.0478 7.08189 28.529 5.68792 30.9778C5.55385 31.2271 5.41979 31.4764 5.28167 31.7333C4.67838 31.5463 4.67838 31.5463 4.06292 31.3555C4.06292 24.7482 4.06292 18.1409 4.06292 11.3333C4.86729 11.7073 4.86729 11.7073 5.68792 12.0889C6.61785 12.0933 6.61785 12.0933 7.56682 11.9708C8.03971 11.9146 8.03971 11.9146 8.52215 11.8572C9.34417 11.7111 9.34417 11.7111 10.1567 11.3333Z" fill="white" fill-opacity="0.6"/>
</svg>
