<svg width="13" height="34" viewBox="0 0 13 34" fill="none" xmlns="http://www.w3.org/2000/svg">
<path d="M6.05709 1.01526C4.20435 1.70621 2.1032 2.76668 1.18209 4.53331C1.13287 5.14584 1.11287 5.76065 1.10823 6.37498C1.10264 6.70126 1.09706 7.02753 1.0913 7.3637C1.22683 9.3419 1.61018 11.2715 1.96997 13.2222C2.9619 18.6784 3.72675 24.0155 3.8105 29.5628C3.81758 29.9363 3.82466 30.3097 3.83195 30.6944C3.8343 31.0236 3.83665 31.3528 3.83907 31.692C3.93967 32.4889 3.93967 32.4889 4.72755 33.2444C5.76421 33.1763 6.19496 32.9742 6.91883 32.2557C10.2804 27.1924 10.4317 20.9191 10.7617 15.0958C10.8998 12.7116 11.1432 10.4226 11.6486 8.08273C11.9344 6.56025 12.0922 5.21438 11.4245 3.77776C9.87078 2.21978 8.31689 1.20208 6.05709 1.01526ZM8.69156 2.95137C9.1006 3.24721 9.1006 3.24721 9.51791 3.54903C10.3321 4.17687 10.3321 4.17687 11.0306 5.28887C10.9838 7.84349 10.1061 9.9429 8.66694 12.0889C7.5374 12.9665 7.5374 12.9665 6.15558 12.8208C4.47055 12.4029 3.84174 11.8618 2.75785 10.5778C2.02928 8.48173 1.95201 6.32429 2.36391 4.15554C3.36829 3.01436 4.45164 2.39589 5.90936 1.88887C7.3036 1.88887 7.61076 2.15513 8.69156 2.95137ZM4.18588 12.6555C5.47542 13.4366 6.37933 13.3506 7.87906 13.2222C8.83929 12.8444 8.83929 12.8444 9.45482 12.4666C11.4029 16.2029 9.17081 24.4921 7.91291 28.4012C7.37059 29.7519 6.76016 30.9164 5.90936 32.1111C5.32436 31.9241 5.32436 31.9241 4.72755 31.7333C4.74583 31.316 4.76411 30.8986 4.78294 30.4686C4.89828 26.5037 4.53601 22.8147 3.71231 18.9249C3.23297 16.6129 3.05595 14.4456 3.15179 12.0889C3.64268 12.0462 3.64268 12.0462 4.18588 12.6555Z" fill="white" fill-opacity="0.6"/>
</svg>
