<svg width="21" height="32" viewBox="0 0 21 32" fill="none" xmlns="http://www.w3.org/2000/svg">
<path d="M13.173 1.36467C12.4454 1.5587 12.4454 1.5587 11.742 1.33084C10.7858 1.1052 9.92733 1.06604 8.94383 1.05879C8.61497 1.05345 8.28612 1.04811 7.9473 1.04261C6.92778 1.13593 6.33875 1.42168 5.44383 1.88232C4.75805 1.96384 4.75805 1.96384 4.05841 2.04702C2.72161 2.25879 2.72161 2.25879 1.99244 2.68232C0.805798 4.5969 1.18291 6.56248 1.68406 8.61614C1.94383 9.41173 1.94383 9.41173 2.34164 10.0727C3.15191 11.8745 2.85179 14.0193 2.84313 15.9529C2.84179 16.4298 2.84044 16.9067 2.83905 17.3981C2.79167 21.3361 2.3663 24.7833 0.874384 28.4706C0.378792 29.7659 0.366302 30.0162 0.777161 31.247C2.48874 31.7438 2.48874 31.7438 3.51002 31.2161C6.5983 28.5077 8.22934 25.2055 9.99504 21.5985C10.4123 20.6586 10.4123 20.6586 11.2772 20.3294C11.221 20.7564 11.1649 21.1835 11.107 21.6235C11.034 22.196 10.9611 22.7686 10.8883 23.3411C10.8512 23.6212 10.8141 23.9012 10.7759 24.1897C10.5413 26.055 10.3981 27.8619 10.4994 29.7411C11.2772 30.6823 11.2772 30.6823 12.0549 31.247C14.9658 29.8381 15.7509 27.545 16.7869 24.7279C17.3607 22.9363 17.5379 21.3679 17.4827 19.4911C17.4744 19.0403 17.4661 18.5895 17.4576 18.125C17.437 17.1876 17.4118 16.2503 17.3817 15.3132C17.3417 12.6334 17.5839 10.5205 18.6816 8.04776C19.4365 6.23824 19.7476 4.51622 19.0063 2.68232C17.1295 0.623153 15.7904 0.619415 13.173 1.36467ZM18.2772 3.01173C18.8291 5.38058 18.1722 7.65645 17.1105 9.7882C15.9169 10.5585 15.6092 10.6407 14.2516 10.6838C13.7545 10.7031 13.7545 10.7031 13.2474 10.7228C12.902 10.7327 12.5566 10.7427 12.2008 10.7529C11.5232 10.7759 10.8457 10.7999 10.1682 10.825C9.66991 10.8428 9.66991 10.8428 9.16153 10.861C7.89093 10.9333 6.6405 11.0934 5.3824 11.2773C4.5756 11.3627 4.5756 11.3627 3.71813 10.6823C2.61584 9.06033 2.22456 7.70418 2.23549 5.76467C2.23349 5.40604 2.23148 5.0474 2.22942 4.6779C2.24083 3.69652 2.24083 3.69652 3.11049 3.01173C4.25484 3.12712 5.18927 3.26498 6.22161 3.76467C6.22161 3.26773 6.22161 2.77079 6.22161 2.25879C7.26244 1.92292 7.87588 1.83134 8.94383 1.83526C9.20852 1.83429 9.4732 1.83332 9.74591 1.83232C10.9686 1.91345 11.5778 2.17334 12.4438 3.01173C12.7165 2.82537 12.9892 2.63902 13.2702 2.44702C15.2095 1.46752 16.6888 1.53597 18.2772 3.01173ZM16.3327 11.2941C16.4217 12.7839 16.4997 14.2742 16.5758 15.7647C16.6008 16.182 16.6259 16.5994 16.6517 17.0294C16.8363 20.8261 16.3986 23.9147 14.6313 27.3176C14.518 27.5489 14.4047 27.7801 14.288 28.0183C13.6133 29.337 13.6133 29.337 12.3557 30.0808C12.1281 30.093 11.9005 30.1051 11.666 30.1176C11.217 27.8212 11.4282 25.9235 11.8278 23.6367C12.0746 22.0453 12.0585 21.0111 11.2772 19.5764C10.8922 19.5764 10.5072 19.5764 10.1105 19.5764C9.91749 19.9676 9.72449 20.3587 9.52564 20.7617C6.84062 26.5103 6.84062 26.5103 2.33272 30.8706C2.07605 30.8706 1.81938 30.8706 1.55494 30.8706C1.77937 29.0826 2.15757 27.4555 2.72161 25.7411C4.07471 21.2419 3.94368 16.6897 3.88827 12.047C8.06053 11.2349 12.0948 11.2161 16.3327 11.2941Z" fill="white" fill-opacity="0.6"/>
</svg>
