<svg width="17" height="30" viewBox="0 0 17 30" fill="none" xmlns="http://www.w3.org/2000/svg">
<g clip-path="url(#clip0_334_2085)">
<path d="M13.0575 0.901942C12.7619 0.936208 12.4663 0.970475 12.1617 1.00578C11.3339 1.13928 11.3339 1.13928 10.2005 1.51903C8.79997 1.57318 7.56625 1.52097 6.18663 1.25795C4.91163 1.13928 4.91163 1.13928 3.87274 1.54277C2.79993 2.47139 2.37547 3.21981 1.88941 4.55701C1.79331 6.43512 2.02634 8.04955 2.45608 9.87346C3.43633 14.4799 3.19182 18.5546 1.87465 23.0385C1.33912 24.9051 0.886581 26.5961 1.51163 28.4811C3.86307 28.2866 4.83152 26.7084 6.30321 25.0174C7.27101 23.8083 8.01322 22.6562 8.68941 21.2659C8.57594 21.655 8.46248 22.0442 8.34557 22.4452C8.20024 22.9618 8.05515 23.4785 7.91024 23.9953C7.835 24.2511 7.75977 24.5068 7.68225 24.7704C7.26779 26.2687 7.09601 27.3629 7.55608 28.8608C8.40608 29.1367 8.40608 29.1367 9.44496 29.2406C14.4139 25.8161 15.1325 17.9825 16.245 12.5317C16.3394 12.0774 16.4339 11.6231 16.5312 11.1551C17.8251 4.26764 17.8251 4.26764 16.2833 1.9685C15.1384 0.772661 14.6423 0.708364 13.0575 0.901942ZM15.395 2.20732C16.4725 3.74173 16.525 4.76214 16.4161 6.60705C16.2836 7.66632 16.2836 7.66632 15.6311 8.78169C13.8878 9.75523 12.3142 9.76025 10.3422 9.82006C9.23264 9.86653 8.25831 10.0161 7.1783 10.2532C5.39677 10.4363 5.39677 10.4363 3.82552 9.75479C3.00041 8.51067 2.95184 7.36308 2.9283 5.90985C2.91369 5.37016 2.91369 5.37016 2.89878 4.81956C3.04557 3.60929 3.28081 3.11819 4.15608 2.27852C5.79342 1.64462 6.99853 2.09171 8.61858 2.63454C9.05734 2.77894 9.49611 2.92335 9.94818 3.07214C10.2808 3.18619 10.6134 3.30025 10.9561 3.41777C10.8314 3.04182 10.7067 2.66587 10.5783 2.27852C13.033 1.33715 13.033 1.33715 15.395 2.20732ZM15.4894 9.87346C14.9173 15.8748 13.9209 22.8526 10.0028 27.6696C9.41262 28.2171 9.41262 28.2171 8.31163 28.1013C8.46103 26.2391 8.68693 24.5654 9.25608 22.7849C9.82522 21.0043 10.0511 19.3306 10.2005 17.4684C9.82652 17.4684 9.45252 17.4684 9.06719 17.4684C8.95031 17.9305 8.83344 18.3926 8.71302 18.8687C7.54106 22.4085 5.16695 25.4502 2.26719 27.7216C2.10722 25.7115 2.37407 24.2679 3.02274 22.3576C4.16646 18.6495 3.91332 14.8558 3.7783 11.0127C7.68102 10.4321 11.5502 10.0712 15.4894 9.87346Z" fill="white" fill-opacity="0.6"/>
</g>
<defs>
<clipPath id="clip0_334_2085">
<rect width="17" height="30" fill="white" transform="matrix(-1 0 0 1 17 0)"/>
</clipPath>
</defs>
</svg>
