<svg width="21" height="31" viewBox="0 0 21 31" fill="none" xmlns="http://www.w3.org/2000/svg">
<g clip-path="url(#clip0_334_2087)">
<path d="M13.3229 1.64315C13.0085 1.66573 12.6941 1.6883 12.3701 1.71156C11.4152 1.78493 10.4625 1.87046 9.50919 1.96198C9.08542 2.00248 9.08542 2.00248 8.65308 2.0438C4.34671 2.48371 4.34671 2.48371 3.22683 3.24956C2.30658 4.61818 2.59141 6.27499 2.77334 7.84806C2.95202 8.40231 3.15021 8.95077 3.36768 9.49125C4.70289 13.066 4.3379 17.1263 2.88787 20.6028C2.19675 21.9281 1.34871 23.1119 0.47337 24.3229C-0.169374 25.3963 -0.189503 26.25 -0.000246048 27.4683C2.77424 27.4098 4.3395 26.1554 6.33938 24.3291C7.18475 23.4421 7.94864 22.538 8.71674 21.5822C8.49532 22.0155 8.49532 22.0155 8.26943 22.4575C8.08198 22.8404 7.89454 23.2233 7.70141 23.6178C7.51293 23.9957 7.32446 24.3736 7.13028 24.7629C6.69781 26.0075 6.7492 26.6195 7.13183 27.8607C8.32051 28.2531 8.32051 28.2531 9.10522 28.0002C13.1105 25.9011 15.1928 22.6971 16.6583 18.5227C17.2171 16.6706 17.5809 14.8655 17.8299 12.9493C17.8672 12.6772 17.9045 12.405 17.9429 12.1247C18.0682 11.1985 18.1856 10.2716 18.3005 9.3441C18.3386 9.05037 18.3768 8.75664 18.4161 8.45401C18.9614 3.69851 18.9614 3.69851 17.6164 1.95738C16.1774 1.38509 14.8349 1.51618 13.3229 1.64315ZM17.4337 3.1392C17.6087 4.11743 17.6087 4.11743 17.5575 5.22385C17.556 5.59463 17.5545 5.9654 17.5529 6.34742C17.3792 7.9776 17.3792 7.9776 16.6413 9.41768C15.5309 9.77097 14.6117 9.97841 13.4715 10.1289C13.0154 10.1964 13.0154 10.1964 12.5501 10.2653C8.50203 10.9891 8.50203 10.9891 4.72971 9.85913C3.71038 8.23091 3.35587 6.62539 3.56579 4.70882C4.01388 3.95842 4.01388 3.95842 4.75447 3.5316C5.5749 3.47358 5.5749 3.47358 6.41367 3.65423C6.91217 3.74326 7.41067 3.83228 7.92428 3.92401C7.92428 3.66502 7.92428 3.40603 7.92428 3.1392C8.34413 3.1483 8.76397 3.15741 9.19654 3.16679C9.74651 3.17415 10.2965 3.18129 10.8465 3.18825C11.2617 3.19811 11.2617 3.19811 11.6853 3.20817C12.4131 3.21511 13.141 3.17963 13.8677 3.1392C14.1292 2.88021 14.3907 2.62122 14.6601 2.35439C16.2634 2.20928 16.2634 2.20928 17.4337 3.1392ZM16.6413 10.2025C16.9308 15.5018 15.9418 20.3015 12.3462 24.3689C11.318 25.4153 10.3435 26.2634 9.11296 27.0759C8.58994 27.0759 8.06692 27.0759 7.52806 27.0759C7.96416 25.6722 8.48324 24.3556 9.11296 23.0292C9.91777 21.2805 10.3557 19.5445 10.6979 17.6582C9.65584 18.6108 8.79082 19.6239 7.94905 20.7484C5.12328 24.7225 5.12328 24.7225 0.792208 26.6835C1.03911 25.4367 1.27717 24.9999 2.10471 23.9367C4.93471 20.086 5.04123 15.5624 5.1507 10.9873C5.63898 11.0591 6.12727 11.131 6.63036 11.205C7.85671 11.3561 8.80719 11.3882 10.0045 11.0363C12.1917 10.4749 14.3926 10.3457 16.6413 10.2025Z" fill="white" fill-opacity="0.6"/>
</g>
<defs>
<clipPath id="clip0_334_2087">
<rect width="21" height="31" fill="white" transform="matrix(-1 0 0 1 21 0)"/>
</clipPath>
</defs>
</svg>
