<svg width="9" height="33" viewBox="0 0 9 33" fill="none" xmlns="http://www.w3.org/2000/svg">
<g clip-path="url(#clip0_394_2044)">
<path fill-rule="evenodd" clip-rule="evenodd" d="M2.95172 0.973419L4.47463 0.971938C6.05981 0.948755 7.0161 0.934769 8.36578 1.72315C9.09833 2.7993 9.1372 3.54112 9.03855 4.79764L8.94906 5.59478C8.84697 6.90507 8.72794 8.18865 8.40064 9.46938C7.92672 11.1146 7.61107 12.6995 7.43085 14.3958L7.33826 15.362C7.02952 18.4412 6.84794 21.5176 6.72463 24.6077C6.64567 26.928 6.55305 29.1912 6.13656 31.4827L4.0911 31.862C3.01822 30.1837 2.6196 28.6851 2.34028 26.7838L2.19906 25.6982C1.73049 22.2798 1.49929 18.8766 1.38088 15.4331L1.34632 14.1311L1.31376 12.9247C1.30072 12.2827 1.27592 11.6405 1.22747 11C0.818377 10.2413 0.818377 10.2413 0.585067 9.38789C0.571694 9.32641 0.558197 9.26453 0.544615 9.20225C0.0186672 6.79069 -0.634602 3.79535 0.866317 1.61054C1.1816 1.41707 1.36783 1.30279 1.56802 1.22401C1.85691 1.11033 2.17489 1.07057 2.95172 0.973419ZM6.47703 14.2181L6.54565 13.2758C5.93658 13.4641 5.62978 13.5589 5.31585 13.6095C4.99721 13.661 4.67124 13.6669 4.0144 13.6788L2.86383 13.6551C2.10884 19.8177 2.10884 19.8177 3.27162 26.0247L3.42633 26.9073L3.56745 27.7655C3.57298 27.7954 3.57846 27.8252 3.58392 27.8548C3.83869 29.2389 4.02462 30.249 5.31838 31.1034C5.64669 25.6399 5.6467 25.6398 6.47703 14.2181ZM7.36383 1.89651C8.3032 3.20298 8.22858 3.89404 8.08051 5.2654C8.06369 5.42111 8.04593 5.58559 8.0286 5.76073L7.89117 7.22315L7.77292 8.34478L7.36383 9.1034C7.17261 10.6637 7.00007 11.8008 5.72747 12.8965C5.23264 13.0366 4.98148 13.1078 4.72974 13.1099C4.47027 13.1121 4.21018 13.0409 3.68201 12.8965C1.90195 11.4347 1.49923 9.69335 1.22747 7.58616C0.929834 4.58854 0.929835 4.58854 2.04565 1.89651C2.63562 1.8105 2.9469 1.76511 3.25979 1.74537C3.60924 1.72331 3.96072 1.73324 4.70474 1.75427L6.14934 1.74538L7.36383 1.89651Z" fill="white" fill-opacity="0.6"/>
<path d="M7.36328 0.379272C6.5451 0.758583 6.5451 0.758583 6.5451 0.758583L7.36328 0.379272Z" fill="white" fill-opacity="0.6"/>
</g>
<defs>
<clipPath id="clip0_394_2044">
<rect width="9" height="33" fill="white" transform="matrix(-1 0 0 1 9 0)"/>
</clipPath>
</defs>
</svg>
