<svg width="11" height="37" viewBox="0 0 11 37" fill="none" xmlns="http://www.w3.org/2000/svg">
<path fill-rule="evenodd" clip-rule="evenodd" d="M4.19706 1.43005L5.52317 1.46048C5.68155 1.46266 5.83528 1.46313 5.9853 1.46359C6.96835 1.46661 7.79218 1.46914 8.7236 1.94732C9.54066 3.14077 9.58059 4.27157 9.58594 5.70514L9.57705 6.52364C9.59549 8.18364 9.53012 9.70355 9.12069 11.316C8.44387 15.3502 8.10435 17.3739 7.90348 19.4112C7.7013 21.4619 7.63959 23.5264 7.51575 27.669L7.47084 28.5462L7.38268 30.2268C7.29396 31.996 7.14191 33.6997 6.82705 35.4421L5.30981 35.8315C2.75735 31.9003 2.75735 31.9003 2.42245 15.9224L2.40479 15.0403C2.39262 14.4789 2.38057 13.9176 2.36867 13.3562C2.34448 12.0233 2.32 10.7645 2.08466 9.45373C1.89602 8.56838 1.89602 8.56838 1.81897 7.14132L1.80119 5.59864C1.79818 5.44112 1.79388 5.28739 1.78968 5.13682C1.75761 3.98898 1.73069 3.02501 2.31533 1.96862C2.61545 1.79707 2.79022 1.69717 2.97673 1.62967C3.23681 1.53556 3.5197 1.50448 4.19706 1.43005ZM7.12033 21.561C7.27652 19.1775 7.43167 16.7941 7.58567 14.4105C6.95688 14.5567 6.32403 14.685 5.68912 14.8C5.18423 14.6666 4.67863 14.5361 4.17188 14.4105C3.7354 14.7719 3.51746 14.9524 3.41565 15.1839C3.31412 15.4148 3.32807 15.6965 3.35593 16.2591L3.40881 17.613L3.46289 19.1017L3.53179 20.6664C3.65827 24.1557 3.8079 27.6044 4.33486 31.0574L4.50377 31.8881C4.75175 33.1797 5.0972 33.7967 6.06843 34.6631C6.33518 32.6373 6.52887 30.6209 6.66421 28.5815L6.7337 27.4944C6.81049 26.3265 6.88708 25.1586 6.96253 23.9906C7.01481 23.1807 7.06742 22.3708 7.12033 21.561ZM8.38354 3.06401C8.57465 4.33951 8.66985 4.97487 8.66914 5.61012C8.66843 6.24064 8.57323 6.87105 8.38354 8.12717V9.68506C8.21372 11.5595 7.83502 12.662 6.48699 13.9693C5.97671 14.0051 5.73107 14.0223 5.48553 14.021C5.25761 14.0198 5.02979 14.0025 4.5905 13.9693C3.28392 10.4624 2.31811 7.25304 2.69389 3.45348L3.45251 2.28506C5.24388 2.07118 6.69748 2.51001 8.38354 3.06401Z" fill="white" fill-opacity="0.6"/>
<path d="M10.2422 0.389526C9.48357 0.779 9.48357 0.779 9.48357 0.779L10.2422 0.389526Z" fill="white" fill-opacity="0.6"/>
</svg>
