<svg width="12" height="42" viewBox="0 0 12 42" fill="none" xmlns="http://www.w3.org/2000/svg">
<path d="M5.33415 2.2909C3.75706 3.44483 2.59925 4.8163 2.00082 6.87272C1.82871 8.58022 1.92995 10.0105 2.32487 11.6743C2.71127 13.4209 2.82829 15.1308 2.91618 16.9253C2.95497 17.6079 2.99382 18.2905 3.03272 18.9731C3.09019 20.0326 3.14648 21.0922 3.20142 22.152C3.711 31.8161 3.711 31.8161 5.66748 36.1057C5.83248 36.4763 5.99748 36.8469 6.16748 37.2288C6.61857 38.0886 6.97776 38.7148 7.66748 39.3273C8.72998 39.3989 8.72998 39.3989 9.66748 39.3273C9.99631 38.0718 9.987 37.0405 9.84717 35.7611C9.11808 27.9438 9.03352 18.7454 10.9175 11.1204C11.397 9.15968 11.514 7.57465 10.6675 5.72726C9.31153 3.98743 7.48589 1.84277 5.33415 2.2909ZM8.18832 4.31931C8.45 4.55408 8.71168 4.78886 8.98129 5.03074C9.77919 5.84065 10.2869 6.47679 10.4344 7.71242C10.4445 10.1733 10.3056 12.3964 8.89274 14.3584C8.07874 15.2321 7.40292 15.6385 6.31332 15.8932C4.98117 15.5685 4.54155 14.9277 3.66748 13.7454C2.77941 11.1133 2.28034 8.32658 3.28077 5.6676C3.93834 4.47056 4.62779 3.82367 5.66748 3.05454C6.9148 3.05454 7.22646 3.44262 8.18832 4.31931ZM9.33415 15.2727C9.31033 15.5506 9.28651 15.8285 9.26197 16.1148C8.91867 20.7161 8.96389 25.3107 8.97998 29.925C8.98166 30.7652 8.98318 31.6054 8.98454 32.4456C8.98818 34.4849 8.99373 36.5243 9.00082 38.5636C7.65909 37.9998 7.10904 37.7 6.47998 36.2011C3.92147 29.6578 3.6129 22.3693 3.66748 15.2727C3.94936 15.4696 4.23123 15.6665 4.52165 15.8693C5.88716 16.5234 6.57751 16.4288 8.00082 16.0364C8.44961 15.792 8.8952 15.5395 9.33415 15.2727Z" fill="white" fill-opacity="0.6"/>
<path d="M2 0.381836C0.666667 0.763654 0.666667 0.763654 0.666667 0.763654L2 0.381836Z" fill="white" fill-opacity="0.6"/>
<path d="M8 0.381836C6.66667 0.763654 6.66667 0.763654 6.66667 0.763654L8 0.381836Z" fill="white" fill-opacity="0.6"/>
<path d="M3.66602 0.381836C2.66602 0.763654 2.66602 0.763654 2.66602 0.763654L3.66602 0.381836Z" fill="white" fill-opacity="0.6"/>
<path d="M5.66602 0.381836C4.99935 0.763654 4.99935 0.763654 4.99935 0.763654L5.66602 0.381836Z" fill="white" fill-opacity="0.6"/>
</svg>
