<svg width="15" height="37" viewBox="0 0 15 37" fill="none" xmlns="http://www.w3.org/2000/svg">
<path d="M8.00587 2.78931C5.87214 3.15737 4.69327 4.24995 3.24235 5.72165C1.57511 8.85905 3.75568 15.5215 4.33188 18.953C4.41148 19.4308 4.41148 19.4308 4.49268 19.9183C6.45018 31.5366 6.45018 31.5366 8.72008 34.318C9.32343 34.7113 9.32343 34.7113 10.3876 34.6398C11.3505 34.3299 11.3505 34.3299 11.7559 33.567C11.7881 33.0262 11.7951 32.484 11.789 31.9423C11.7864 31.6059 11.7837 31.2694 11.781 30.9228C11.7764 30.5573 11.7717 30.1917 11.767 29.8152C11.7618 29.0389 11.7568 28.2626 11.7519 27.4863C11.7419 26.2644 11.7306 25.0425 11.717 23.8207C11.312 17.0982 11.312 17.0982 12.9721 10.6804C13.4103 7.02281 13.4103 7.02281 12.0599 5.36405C11.692 5.10443 11.3241 4.84481 10.9451 4.57732C10.6942 4.28623 10.4434 3.99514 10.1849 3.69523C9.32343 3.05155 9.32343 3.05155 8.00587 2.78931ZM10.2103 5.12565C10.4919 5.36904 10.7736 5.61243 11.0638 5.8632C12.1628 6.75255 12.1628 6.75255 12.2626 8.27255C12.2378 10.1352 11.5806 11.418 10.3876 12.8976C9.48169 13.5204 8.81973 13.6568 7.70181 13.732C6.08351 13.3332 5.32233 12.7843 4.45857 11.4433C3.82816 9.66386 3.70563 7.95427 4.05316 6.1031C4.82133 5.05866 5.67457 4.36576 6.891 3.81444C8.73982 3.81444 8.92311 3.99638 10.2103 5.12565ZM5.52276 13.732C7.3174 14.4429 9.11113 14.205 10.9451 13.732C10.9553 16.3659 10.9624 18.9998 10.9673 21.6337C10.9694 22.5298 10.9721 23.4259 10.9756 24.322C10.9806 25.6097 10.9829 26.8974 10.9846 28.1851C10.9867 28.586 10.9888 28.987 10.991 29.4001C10.991 29.7742 10.991 30.1483 10.9911 30.5337C10.992 30.8624 10.9929 31.191 10.9938 31.5296C10.947 32.3873 10.7945 33.1261 10.5397 33.9485C9.25226 33.6901 9.25226 33.6901 8.80757 32.6638C7.4332 29.276 6.63577 25.9483 5.97884 22.386C5.87477 21.8462 5.77026 21.3066 5.66528 20.7671C5.1904 18.3023 4.74625 15.8414 4.45857 13.3505C4.93535 13.3172 4.93535 13.3172 5.52276 13.732Z" fill="white" fill-opacity="0.6"/>
</svg>
