<svg width="11" height="36" viewBox="0 0 11 36" fill="none" xmlns="http://www.w3.org/2000/svg">
<g clip-path="url(#clip0_394_2058)">
<path d="M4.40021 3.41055C1.7331 5.13395 1.7331 5.13395 1.10021 6.44213C1.01507 8.29007 1.08517 9.92624 1.45112 11.7355C1.90182 14.2025 2.0232 16.6575 2.15438 19.1605C2.93838 31.7386 2.93838 31.7386 6.23354 34.8632C7.03563 35.1341 7.03563 35.1341 7.70021 35.2421C8.61183 33.8289 8.45578 32.8375 8.38771 31.2158C8.32638 28.3139 8.62292 25.5711 9.09813 22.7132C9.65479 19.3643 10.1608 16.0201 10.5648 12.6474C10.6146 12.2546 10.6643 11.8618 10.7156 11.4572C11.1649 7.61887 11.1649 7.61887 10.6335 5.68423C9.90164 4.94114 9.90164 4.94114 9.00646 4.40529C8.712 4.22259 8.41753 4.0399 8.11414 3.85167C6.64144 3.01944 6.07021 2.93112 4.40021 3.41055ZM9.90021 6.44213C10.3274 8.5008 10.1147 10.3362 9.46479 12.3158C8.43441 13.7846 7.6155 14.6393 5.86688 15.0158C4.60761 14.7447 4.09398 14.296 3.33745 13.2291C2.30825 11.3847 1.34623 8.9272 1.83354 6.82108C2.96694 5.39809 4.13175 4.34622 5.86688 3.86055C7.55761 4.33379 8.83217 4.97037 9.90021 6.44213ZM9.16688 14.0211C9.25639 16.4872 8.90297 18.6907 8.43354 21.1027C7.65453 25.3453 7.54546 29.4216 7.70021 33.7263C7.21621 33.7263 6.73221 33.7263 6.23354 33.7263C2.80383 27.7765 3.01669 20.7227 2.93354 14.0211C3.14577 14.2057 3.35799 14.3904 3.57664 14.5806C4.77412 15.42 5.94783 15.3791 7.33354 15.1579C8.43354 14.5895 8.43354 14.5895 9.16688 14.0211Z" fill="white" fill-opacity="0.6"/>
<path d="M7.33398 0.378906C6.23398 0.757854 6.23398 0.757854 6.23398 0.757854L7.33398 0.378906Z" fill="white" fill-opacity="0.6"/>
</g>
<defs>
<clipPath id="clip0_394_2058">
<rect width="11" height="36" fill="white" transform="matrix(-1 0 0 1 11 0)"/>
</clipPath>
</defs>
</svg>
