<svg width="22" height="38" viewBox="0 0 22 38" fill="none" xmlns="http://www.w3.org/2000/svg">
<path d="M4.63346 3.18297C4.15923 3.32992 4.15923 3.32992 3.67542 3.47985C2.65768 4.02017 2.42471 4.44408 2.03624 5.48452C1.76167 8.12473 2.52991 10.642 3.68616 13.0262C4.14288 14.2967 4.14063 15.2724 4.09556 16.6143C4.08558 17.0993 4.0756 17.5844 4.06532 18.0841C4.03697 19.0921 4.00522 20.1001 3.96983 21.1079C3.88792 25.5905 4.78055 29.7172 7.73994 33.299C8.68207 34.0825 8.68207 34.0825 9.36957 34.4742C10.1589 34.2783 10.1589 34.2783 10.9992 33.6907C11.4231 31.7782 11.4002 30.4984 10.9992 28.5979C10.9108 27.644 10.8351 26.6889 10.77 25.7332C10.7359 25.2419 10.7018 24.7505 10.6666 24.2443C10.6419 23.8711 10.6172 23.4979 10.5918 23.1134C10.8607 23.1134 11.1296 23.1134 11.4066 23.1134C11.5618 23.6058 11.5618 23.6058 11.7201 24.1081C13.0191 27.6213 15.1787 32.1639 18.3325 34.4742C19.3851 34.852 20.0374 34.888 21.1844 34.866C21.3188 34.7367 21.4533 34.6074 21.5918 34.4742C21.5728 32.3837 21.1196 30.5136 20.255 28.6056C19.3624 26.1938 19.4148 23.5629 19.3001 21.0322C19.2686 20.4478 19.2686 20.4478 19.2365 19.8516C19.0192 15.6195 19.0192 15.6195 20.1913 11.6056C20.989 9.67141 21.0722 7.93217 20.777 5.87627C20.0967 4.75873 19.6198 4.45734 18.3564 4.06135C17.7956 3.92033 17.2309 3.79245 16.6631 3.68031C15.803 3.52394 15.803 3.52394 14.6659 3.134C12.8929 3.02166 11.1991 3.10249 9.44596 3.37885C8.19157 3.64308 8.19157 3.64308 7.36914 3.11564C6.25362 2.62642 5.77667 2.80429 4.63346 3.18297ZM15.8881 4.70101C15.8881 5.08885 15.8881 5.47668 15.8881 5.87627C16.115 5.73891 16.3418 5.60155 16.5756 5.46003C17.7506 5.00197 18.3622 5.11261 19.5548 5.48452C20.3518 7.01742 20.2005 8.96724 19.7314 10.5941C19.1974 11.855 18.633 12.8687 17.5177 13.7113C16.6238 13.6567 15.7293 13.5881 14.8425 13.4665C13.687 13.3451 12.5808 13.2907 11.4209 13.2706C11.0593 13.2621 10.6977 13.2537 10.3251 13.245C9.59353 13.2296 8.86172 13.221 8.12994 13.2197C5.99504 13.1755 5.99504 13.1755 4.26902 12.0387C3.18622 10.1184 2.81808 8.29951 2.90198 6.12111C3.18694 5.0708 3.18694 5.0708 3.94596 4.35823C5.18913 3.77668 5.96022 3.75916 7.33254 3.91751C8.67739 4.46567 8.67739 4.46567 9.77698 5.09276C9.91143 4.83421 10.0459 4.57565 10.1844 4.30926C11.0871 4.09516 11.0871 4.09516 12.145 4.01544C12.5006 3.97706 12.8561 3.93869 13.2224 3.89914C14.3432 3.91901 14.9393 4.14811 15.8881 4.70101ZM17.9251 14.4948C17.9311 14.737 17.937 14.9792 17.9431 15.2287C18.1122 21.4182 18.6359 27.0248 20.777 32.9072C20.777 33.295 20.777 33.6829 20.777 34.0825C19.1698 33.8535 18.2928 33.1733 17.1103 32.1237C16.4073 31.1532 15.8292 30.1307 15.2515 29.0876C15.0995 28.822 14.9474 28.5564 14.7908 28.2827C13.7501 26.4518 12.7756 24.5919 11.814 22.7216C11.2762 22.7216 10.7385 22.7216 10.1844 22.7216C8.94854 25.0984 9.98637 28.536 10.4533 31.0188C10.6785 32.1527 10.6785 32.1527 10.1844 33.299C9.22967 33.1511 8.68907 33.0408 8.00731 32.3624C4.18362 26.4498 4.70703 20.3601 5.2955 13.7113C9.60461 13.6276 13.6809 13.6873 17.9251 14.4948Z" fill="white" fill-opacity="0.6"/>
<path d="M7.33398 0.391724C6.51917 0.783476 6.51917 0.783476 6.51917 0.783476L7.33398 0.391724Z" fill="white" fill-opacity="0.6"/>
</svg>
