<svg width="17" height="37" viewBox="0 0 17 37" fill="none" xmlns="http://www.w3.org/2000/svg">
<path d="M1.84766 3.11577C0.969939 3.67564 0.969939 3.67564 0.369395 4.67367C-0.293017 7.7318 0.208708 10.6057 0.785156 13.6316C0.869925 14.0921 0.954693 14.5526 1.04203 15.0271C1.55119 17.7229 2.11005 20.3994 2.79467 23.052C2.86309 23.3193 2.93151 23.5866 3.00201 23.8621C3.79893 26.7651 4.98544 29.4015 7.02157 31.5474C8.01478 31.9368 8.01478 31.9368 8.8694 31.9368C9.60853 31.1579 9.60853 31.1579 9.72401 30.0381C9.67642 27.8902 9.03852 25.8158 8.49983 23.7579C8.68277 24.1274 8.8657 24.4969 9.05418 24.8776C10.5014 27.5373 12.1848 30.081 14.7824 31.5474C15.5216 30.7684 15.5216 30.7684 15.6602 29.3079C15.6356 27.6769 15.2699 26.3475 14.7824 24.8046C13.3775 19.936 13.6947 14.9295 14.9485 10.0639C15.2766 8.2809 15.0357 6.74443 14.4129 5.06314C13.6401 3.87059 13.1952 3.59067 11.8952 3.16446C10.7172 3.11577 10.7172 3.11577 9.51613 3.55393C7.81219 3.97294 6.94669 3.57316 5.33254 2.99406C4.0476 2.61089 3.11801 2.71414 1.84766 3.11577ZM6.28244 4.28419C6.16048 4.66977 6.03853 5.05535 5.91287 5.45262C6.30804 5.3261 6.30804 5.3261 6.71119 5.19702C9.59566 4.29852 9.59566 4.29852 12.565 4.28419C13.3425 4.88501 13.6148 5.32841 14.0433 6.23156C14.2447 8.16627 14.1994 9.72876 13.489 11.5381C12.5992 12.6155 12.5992 12.6155 11.1099 12.6335C10.2991 12.5775 9.54802 12.4491 8.75391 12.2654C7.11775 11.9496 5.45808 11.962 3.79798 11.9078C2.3857 11.6471 1.94269 11.338 1.10853 10.1263C0.651112 8.57763 0.636758 7.07146 0.993036 5.5013C1.54914 4.55243 2.04047 4.06098 2.95635 3.50525C4.20557 3.50525 5.11265 3.84586 6.28244 4.28419ZM12.9346 13.2421C12.9218 13.6242 12.9089 14.0062 12.8956 14.3999C12.7963 18.7202 13.2926 22.6034 14.4475 26.7763C14.7519 27.9267 14.8505 28.8066 14.7824 29.9895C13.6467 29.873 13.3038 29.5996 12.5102 28.7039C10.807 26.276 9.39508 23.9129 8.201 21.1487C7.7607 20.2526 7.7607 20.2526 7.02157 19.8631C7.37306 22.6435 7.78107 25.3007 8.65285 27.9569C8.8951 28.9236 8.90599 29.7728 8.8694 30.7684C8.62548 30.8969 8.38157 31.0255 8.13026 31.1579C3.68719 27.3018 2.52978 19.8834 1.98191 14.158C1.93499 13.5932 1.88939 13.0283 1.84766 12.4631C5.62335 12.3512 9.20568 12.6705 12.9346 13.2421Z" fill="white" fill-opacity="0.6"/>
<path d="M14.4121 0.389526C12.9338 0.779 12.9338 0.779 12.9338 0.779L14.4121 0.389526Z" fill="white" fill-opacity="0.6"/>
<path d="M7.76172 0.389526C6.65302 0.779 6.65302 0.779 6.65302 0.779L7.76172 0.389526Z" fill="white" fill-opacity="0.6"/>
<path d="M9.60938 0.389526C8.50068 0.779 8.50068 0.779 8.50068 0.779L9.60938 0.389526Z" fill="white" fill-opacity="0.6"/>
<path d="M4.80469 0.389526C4.06556 0.779 4.06556 0.779 4.06556 0.779L4.80469 0.389526Z" fill="white" fill-opacity="0.6"/>
<path d="M11.8262 0.389526C11.087 0.779 11.087 0.779 11.087 0.779L11.8262 0.389526Z" fill="white" fill-opacity="0.6"/>
</svg>
