<svg width="21" height="31" viewBox="0 0 21 31" fill="none" xmlns="http://www.w3.org/2000/svg">
<path d="M2.37684 2.67902C1.53308 3.28739 1.22479 3.60676 1.05641 4.62007C1.29752 12.0681 1.66605 20.4903 7.43182 26.0501C8.6259 27.0447 9.63096 27.7392 11.0938 28.321C12.0596 28.2253 12.0596 28.2253 12.6787 27.9383C13.2219 26.5259 12.9165 25.7534 12.3073 24.3982C12.1566 24.0568 12.0059 23.7154 11.8507 23.3636C11.7317 23.1051 11.6127 22.8466 11.49 22.5803C11.7863 22.8753 12.0825 23.1703 12.3878 23.4743C12.7818 23.8621 13.176 24.2498 13.5702 24.6374C13.7648 24.8317 13.9594 25.0261 14.1599 25.2264C15.6463 26.6812 16.5883 27.5242 18.7212 27.6034C19.0808 27.5876 19.4403 27.5718 19.8108 27.5556C20.0755 26.8783 20.0755 26.8783 20.207 26.0247C19.7814 25.3265 19.7814 25.3265 19.1422 24.6134C15.8646 20.6745 15.4569 16.3755 15.8485 11.4815C16.0852 10.4288 16.3936 9.4627 16.7664 8.44966C17.1792 7.23748 17.2194 6.2323 17.0372 4.97532C16.5063 4.16354 16.5063 4.16354 15.4523 3.44445C14.0091 3.15128 12.5641 3.07163 11.0938 2.98998C10.3096 2.93762 9.52535 2.88433 8.74123 2.83001C8.22102 2.79953 8.22102 2.79953 7.6903 2.76844C6.74804 2.7043 6.74804 2.7043 5.90573 2.47225C4.66276 2.18271 3.61013 2.41911 2.37684 2.67902ZM5.15043 3.06174C5.28118 3.31433 5.41194 3.56692 5.54665 3.82717C5.9951 3.81829 6.44355 3.80941 6.90559 3.80026C7.4927 3.79308 8.07982 3.78611 8.66694 3.77933C9.11053 3.76971 9.11053 3.76971 9.56309 3.75989C10.3378 3.75315 11.1126 3.78767 11.8863 3.82717C12.1478 4.07976 12.4093 4.33235 12.6787 4.5926C13.6031 4.60826 14.5279 4.60883 15.4523 4.5926C16.1019 5.21999 15.9318 5.93113 15.9476 6.79322C15.9332 8.41272 15.7707 9.4368 14.6599 10.7161C11.8737 12.0616 6.82852 11.0812 3.96175 10.3333C2.85662 9.54474 2.45345 9.06454 2.07967 7.78589C1.81787 5.56705 1.81787 5.56705 2.64925 3.56405C3.61965 2.9358 3.61965 2.9358 5.15043 3.06174ZM5.12566 10.9672C5.44795 11.019 5.77024 11.0708 6.1023 11.1242C6.77643 11.2329 7.45024 11.3434 8.12367 11.4561C10.3328 11.8067 12.4211 11.9165 14.6599 11.8642C14.6516 12.1146 14.6433 12.365 14.6347 12.623C14.5064 17.3146 15.5028 21.5404 18.4999 25.3445C19.0967 25.9866 19.0967 25.9866 19.0184 26.7901C15.3185 25.986 12.6948 22.8523 10.6976 19.9012C10.4161 19.2703 10.1469 18.6338 9.90514 17.9877C9.64363 18.2403 9.38212 18.4928 9.11269 18.7531C9.98549 21.6544 10.914 24.4518 12.2825 27.1728C12.021 27.2991 11.7595 27.4254 11.49 27.5556C7.39201 25.2334 4.68608 22.0162 3.46646 17.5332C3.00061 15.2833 3.10353 12.9992 3.16929 10.7161C3.82715 10.7161 4.47676 10.8628 5.12566 10.9672Z" fill="white" fill-opacity="0.6"/>
</svg>
